<?xml version="1.0" encoding="UTF-8"?>
<!DOCTYPE svg PUBLIC "-//W3C//DTD SVG 1.1//EN" "http://www.w3.org/Graphics/SVG/1.1/DTD/svg11.dtd">
<svg version="1.2" width="200mm" height="200mm" viewBox="0 0 20000 20000" preserveAspectRatio="xMidYMid" fill-rule="evenodd" stroke-width="28.222" stroke-linejoin="round" xmlns="http://www.w3.org/2000/svg" xmlns:ooo="http://xml.openoffice.org/svg/export" xmlns:xlink="http://www.w3.org/1999/xlink" xmlns:presentation="http://sun.com/xmlns/staroffice/presentation" xmlns:smil="http://www.w3.org/2001/SMIL20/" xmlns:anim="urn:oasis:names:tc:opendocument:xmlns:animation:1.0" xml:space="preserve">
 <defs class="ClipPathGroup">
  <clipPath id="presentation_clip_path" clipPathUnits="userSpaceOnUse">
   <rect x="0" y="0" width="20000" height="20000"/>
  </clipPath>
  <clipPath id="presentation_clip_path_shrink" clipPathUnits="userSpaceOnUse">
   <rect x="20" y="20" width="19960" height="19960"/>
  </clipPath>
 </defs>
 <defs class="TextShapeIndex">
  <g ooo:slide="id1" ooo:id-list="id3 id4 id5 id6 id7 id8 id9 id10 id11 id12 id13 id14 id15 id16 id17 id18 id19"/>
 </defs>
 <defs class="EmbeddedBulletChars">
  <g id="bullet-char-template-57356" transform="scale(0.00048828125,-0.00048828125)">
   <path d="M 580,1141 L 1163,571 580,0 -4,571 580,1141 Z"/>
  </g>
  <g id="bullet-char-template-57354" transform="scale(0.00048828125,-0.00048828125)">
   <path d="M 8,1128 L 1137,1128 1137,0 8,0 8,1128 Z"/>
  </g>
  <g id="bullet-char-template-10146" transform="scale(0.00048828125,-0.00048828125)">
   <path d="M 174,0 L 602,739 174,1481 1456,739 174,0 Z M 1358,739 L 309,1346 659,739 1358,739 Z"/>
  </g>
  <g id="bullet-char-template-10132" transform="scale(0.00048828125,-0.00048828125)">
   <path d="M 2015,739 L 1276,0 717,0 1260,543 174,543 174,936 1260,936 717,1481 1274,1481 2015,739 Z"/>
  </g>
  <g id="bullet-char-template-10007" transform="scale(0.00048828125,-0.00048828125)">
   <path d="M 0,-2 C -7,14 -16,27 -25,37 L 356,567 C 262,823 215,952 215,954 215,979 228,992 255,992 264,992 276,990 289,987 310,991 331,999 354,1012 L 381,999 492,748 772,1049 836,1024 860,1049 C 881,1039 901,1025 922,1006 886,937 835,863 770,784 769,783 710,716 594,584 L 774,223 C 774,196 753,168 711,139 L 727,119 C 717,90 699,76 672,76 641,76 570,178 457,381 L 164,-76 C 142,-110 111,-127 72,-127 30,-127 9,-110 8,-76 1,-67 -2,-52 -2,-32 -2,-23 -1,-13 0,-2 Z"/>
  </g>
  <g id="bullet-char-template-10004" transform="scale(0.00048828125,-0.00048828125)">
   <path d="M 285,-33 C 182,-33 111,30 74,156 52,228 41,333 41,471 41,549 55,616 82,672 116,743 169,778 240,778 293,778 328,747 346,684 L 369,508 C 377,444 397,411 428,410 L 1163,1116 C 1174,1127 1196,1133 1229,1133 1271,1133 1292,1118 1292,1087 L 1292,965 C 1292,929 1282,901 1262,881 L 442,47 C 390,-6 338,-33 285,-33 Z"/>
  </g>
  <g id="bullet-char-template-9679" transform="scale(0.00048828125,-0.00048828125)">
   <path d="M 813,0 C 632,0 489,54 383,161 276,268 223,411 223,592 223,773 276,916 383,1023 489,1130 632,1184 813,1184 992,1184 1136,1130 1245,1023 1353,916 1407,772 1407,592 1407,412 1353,268 1245,161 1136,54 992,0 813,0 Z"/>
  </g>
  <g id="bullet-char-template-8226" transform="scale(0.00048828125,-0.00048828125)">
   <path d="M 346,457 C 273,457 209,483 155,535 101,586 74,649 74,723 74,796 101,859 155,911 209,963 273,989 346,989 419,989 480,963 531,910 582,859 608,796 608,723 608,648 583,586 532,535 482,483 420,457 346,457 Z"/>
  </g>
  <g id="bullet-char-template-8211" transform="scale(0.00048828125,-0.00048828125)">
   <path d="M -4,459 L 1135,459 1135,606 -4,606 -4,459 Z"/>
  </g>
  <g id="bullet-char-template-61548" transform="scale(0.00048828125,-0.00048828125)">
   <path d="M 173,740 C 173,903 231,1043 346,1159 462,1274 601,1332 765,1332 928,1332 1067,1274 1183,1159 1299,1043 1357,903 1357,740 1357,577 1299,437 1183,322 1067,206 928,148 765,148 601,148 462,206 346,322 231,437 173,577 173,740 Z"/>
  </g>
 </defs>
 <defs class="TextEmbeddedBitmaps"/>
 <g>
  <g id="id2" class="Master_Slide">
   <g id="bg-id2" class="Background"/>
   <g id="bo-id2" class="BackgroundObjects"/>
  </g>
 </g>
 <g class="SlideGroup">
  <g>
   <g id="container-id1">
    <g id="id1" class="Slide" clip-path="url(#presentation_clip_path)">
     <g class="Page">
      <g class="com.sun.star.drawing.CustomShape">
       <g id="id3">
        <rect class="BoundingBox" stroke="none" fill="none" x="1" y="1" width="20002" height="20002"/>
        <path fill="rgb(200,240,0)" stroke="none" d="M 6923,1 C 3462,1 1,3462 1,6923 L 1,13079 C 1,16540 3462,20002 6923,20002 L 13079,20002 C 16540,20002 20002,16540 20002,13079 L 20002,6923 C 20002,3462 16540,1 13079,1 L 6923,1 Z"/>
       </g>
      </g>
      <g class="com.sun.star.drawing.CustomShape">
       <g id="id4">
        <rect class="BoundingBox" stroke="none" fill="none" x="1500" y="8900" width="6001" height="6001"/>
        <path fill="rgb(180,220,0)" stroke="none" d="M 4500,8900 C 6201,8900 7500,10199 7500,11900 7500,13601 6201,14900 4500,14900 2799,14900 1500,13601 1500,11900 1500,10199 2799,8900 4500,8900 Z"/>
       </g>
      </g>
      <g class="com.sun.star.drawing.CustomShape">
       <g id="id5">
        <rect class="BoundingBox" stroke="none" fill="none" x="2200" y="5300" width="5001" height="5002"/>
        <path fill="rgb(180,220,0)" stroke="none" d="M 4700,5300 C 6117,5300 7200,6383 7200,7800 7200,9217 6117,10300 4700,10300 3283,10300 2200,9217 2200,7800 2200,6383 3283,5300 4700,5300 Z"/>
       </g>
      </g>
      <g class="com.sun.star.drawing.CustomShape">
       <g id="id6">
        <rect class="BoundingBox" stroke="none" fill="none" x="13200" y="9900" width="5001" height="5001"/>
        <path fill="rgb(180,220,0)" stroke="none" d="M 15700,9900 C 17117,9900 18200,10983 18200,12400 18200,13817 17117,14900 15700,14900 14283,14900 13200,13817 13200,12400 13200,10983 14283,9900 15700,9900 Z"/>
       </g>
      </g>
      <g class="com.sun.star.drawing.CustomShape">
       <g id="id7">
        <rect class="BoundingBox" stroke="none" fill="none" x="9900" y="3100" width="6001" height="6001"/>
        <path fill="rgb(180,220,0)" stroke="none" d="M 12900,3100 C 14601,3100 15900,4399 15900,6100 15900,7801 14601,9100 12900,9100 11199,9100 9900,7801 9900,6100 9900,4399 11199,3100 12900,3100 Z"/>
       </g>
      </g>
      <g class="com.sun.star.drawing.CustomShape">
       <g id="id8">
        <rect class="BoundingBox" stroke="none" fill="none" x="5400" y="2300" width="6001" height="6001"/>
        <path fill="rgb(180,220,0)" stroke="none" d="M 8400,2300 C 10101,2300 11400,3599 11400,5300 11400,7001 10101,8300 8400,8300 6699,8300 5400,7001 5400,5300 5400,3599 6699,2300 8400,2300 Z"/>
       </g>
      </g>
      <g class="com.sun.star.drawing.CustomShape">
       <g id="id9">
        <rect class="BoundingBox" stroke="none" fill="none" x="13500" y="6000" width="5001" height="5001"/>
        <path fill="rgb(180,220,0)" stroke="none" d="M 16000,6000 C 17417,6000 18500,7083 18500,8500 18500,9917 17417,11000 16000,11000 14583,11000 13500,9917 13500,8500 13500,7083 14583,6000 16000,6000 Z"/>
       </g>
      </g>
      <g class="com.sun.star.drawing.CustomShape">
       <g id="id10">
        <rect class="BoundingBox" stroke="none" fill="none" x="9500" y="8400" width="6001" height="6001"/>
        <path fill="rgb(180,220,0)" stroke="none" d="M 12500,8400 C 14201,8400 15500,9699 15500,11400 15500,13101 14201,14400 12500,14400 10799,14400 9500,13101 9500,11400 9500,9699 10799,8400 12500,8400 Z"/>
       </g>
      </g>
      <g class="com.sun.star.drawing.CustomShape">
       <g id="id11">
        <rect class="BoundingBox" stroke="none" fill="none" x="5400" y="8700" width="6001" height="6001"/>
        <path fill="rgb(180,220,0)" stroke="none" d="M 8400,8700 C 10101,8700 11400,9999 11400,11700 11400,13401 10101,14700 8400,14700 6699,14700 5400,13401 5400,11700 5400,9999 6699,8700 8400,8700 Z"/>
       </g>
      </g>
      <g class="com.sun.star.drawing.CustomShape">
       <g id="id12">
        <rect class="BoundingBox" stroke="none" fill="none" x="6300" y="5800" width="6001" height="6001"/>
        <path fill="rgb(180,220,0)" stroke="none" d="M 9300,5800 C 11001,5800 12300,7099 12300,8800 12300,10501 11001,11800 9300,11800 7599,11800 6300,10501 6300,8800 6300,7099 7599,5800 9300,5800 Z"/>
       </g>
      </g>
      <g class="com.sun.star.drawing.CustomShape">
       <g id="id13">
        <rect class="BoundingBox" stroke="none" fill="none" x="9750" y="12650" width="4952" height="4951"/>
        <path fill="rgb(180,220,0)" stroke="none" d="M 10104,17246 L 9750,16893 13993,12650 14700,13357 10457,17600 10104,17246 Z"/>
       </g>
      </g>
      <g class="com.sun.star.drawing.CustomShape">
       <g id="id14">
        <rect class="BoundingBox" stroke="none" fill="none" x="5200" y="13099" width="4951" height="4952"/>
        <path fill="rgb(180,220,0)" stroke="none" d="M 9796,17696 L 9443,18050 5200,13807 5907,13100 10150,17343 9796,17696 Z"/>
       </g>
      </g>
      <g class="com.sun.star.drawing.ClosedBezierShape">
       <g id="id15">
        <rect class="BoundingBox" stroke="none" fill="none" x="3521" y="6811" width="13025" height="6703"/>
        <path fill="rgb(255,255,255)" stroke="none" d="M 10015,11143 C 9050,12722 7954,13512 6725,13512 5778,13512 5007,13206 4412,12594 3818,11983 3521,11183 3521,10196 3521,9266 3831,8469 4451,7806 5071,7143 5829,6811 6725,6811 8080,6811 9188,7595 10049,9162 10991,7595 12082,6811 13322,6811 14276,6811 15051,7117 15648,7728 16245,8340 16544,9139 16544,10127 16544,11051 16233,11847 15613,12513 14993,13179 14230,13512 13322,13512 12025,13512 10922,12722 10015,11143 Z M 10575,10161 C 11327,11654 12243,12401 13322,12401 13948,12401 14449,12193 14825,11776 15201,11360 15389,10810 15389,10127 15389,9484 15194,8950 14804,8525 14413,8100 13920,7888 13322,7888 12329,7888 11413,8646 10575,10161 Z M 9481,10144 C 8723,8640 7804,7888 6725,7888 6093,7888 5590,8103 5213,8534 4837,8964 4649,9518 4649,10196 4649,10827 4843,11353 5231,11772 5618,12191 6116,12401 6725,12401 7736,12401 8654,11649 9481,10144 Z"/>
       </g>
      </g>
      <g class="com.sun.star.drawing.CustomShape">
       <g id="id16">
        <rect class="BoundingBox" stroke="none" fill="none" x="9679" y="8162" width="1514" height="2071"/>
        <path fill="rgb(180,220,0)" stroke="none" d="M 10147,9348 L 9680,8465 10257,8162 11192,9928 10614,10231 10147,9348 Z"/>
       </g>
      </g>
      <g class="com.sun.star.drawing.CustomShape">
       <g id="id17">
        <rect class="BoundingBox" stroke="none" fill="none" x="7806" y="10100" width="2585" height="2635"/>
        <path fill="rgb(180,220,0)" stroke="none" d="M 8274,11851 L 7807,10968 9455,10100 10390,11866 8741,12734 8274,11851 Z"/>
       </g>
      </g>
      <g class="com.sun.star.drawing.CustomShape">
       <g id="id18">
        <rect class="BoundingBox" stroke="none" fill="none" x="7639" y="11192" width="2088" height="2002"/>
        <path fill="rgb(255,255,255)" stroke="none" d="M 9725,11192 L 9054,13193 7639,11507 9725,11192 Z"/>
       </g>
      </g>
      <g class="com.sun.star.drawing.CustomShape">
       <g id="id19">
        <rect class="BoundingBox" stroke="none" fill="none" x="9250" y="13000" width="1501" height="7001"/>
        <path fill="rgb(180,220,0)" stroke="none" d="M 10000,20000 L 9250,20000 9250,13000 10750,13000 10750,20000 10000,20000 Z"/>
       </g>
      </g>
     </g>
    </g>
   </g>
  </g>
 </g>
</svg>