<?xml version="1.0" encoding="UTF-8" standalone="no"?>
<svg
   xmlns:dc="http://purl.org/dc/elements/1.1/"
   xmlns:cc="http://creativecommons.org/ns#"
   xmlns:rdf="http://www.w3.org/1999/02/22-rdf-syntax-ns#"
   xmlns:svg="http://www.w3.org/2000/svg"
   xmlns="http://www.w3.org/2000/svg"
   xmlns:sodipodi="http://sodipodi.sourceforge.net/DTD/sodipodi-0.dtd"
   xmlns:inkscape="http://www.inkscape.org/namespaces/inkscape"
   sodipodi:docname="main_origin.svg"
   inkscape:version="1.0 (4035a4fb49, 2020-05-01)"
   id="svg8"
   version="1.1"
   viewBox="0 0 13.229166 13.229166"
   height="50"
   width="50">
  <defs
     id="defs2" />
  <sodipodi:namedview
     inkscape:window-maximized="1"
     inkscape:window-y="-8"
     inkscape:window-x="-8"
     inkscape:window-height="1057"
     inkscape:window-width="1920"
     inkscape:guide-bbox="true"
     showguides="true"
     showgrid="false"
     inkscape:document-rotation="0"
     inkscape:current-layer="layer1"
     inkscape:document-units="mm"
     inkscape:cy="27.204219"
     inkscape:cx="72.945032"
     inkscape:zoom="10.372053"
     inkscape:pageshadow="2"
     inkscape:pageopacity="0.0"
     borderopacity="1.0"
     bordercolor="#666666"
     pagecolor="#ffffff"
     id="base"
     units="px">
    <sodipodi:guide
       id="guide24"
       orientation="0,-1"
       position="99.785714,105.12798" />
  </sodipodi:namedview>
  <metadata
     id="metadata5">
    <rdf:RDF>
      <cc:Work
         rdf:about="">
        <dc:format>image/svg+xml</dc:format>
        <dc:type
           rdf:resource="http://purl.org/dc/dcmitype/StillImage" />
        <dc:title />
      </cc:Work>
    </rdf:RDF>
  </metadata>
  <g
     id="layer1"
     inkscape:groupmode="layer"
     inkscape:label="Ebene 1">
    <path
       sodipodi:nodetypes="cccccccccc"
       d="m 6.6145877,0 c -2.283212,-1.9999984e-6 -4.1341209,1.850907 -4.1341189,4.134119 -2e-6,1.643059 0.007,1.643059 4.1341189,9.095049 C 10.741665,5.777178 10.748709,5.777178 10.748707,4.134119 10.74871,1.850907 8.8977997,-1.9999984e-6 6.6145877,0 Z m 0,2.480446 c 0.913288,8e-6 1.653646,0.740385 1.653631,1.653673 -9e-6,0.913272 -0.74036,1.653622 -1.653631,1.653631 -0.913288,1.5e-5 -1.653665,-0.740343 -1.653673,-1.653631 -1.5e-5,-0.913305 0.740368,-1.653688 1.653673,-1.653673 z"
       style="fill:#c00000;fill-opacity:1;fill-rule:evenodd;stroke-width:0.0218763"
       id="path10" />
  </g>
</svg>
