<?xml version="1.0" encoding="UTF-8"?>
<!DOCTYPE svg PUBLIC "-//W3C//DTD SVG 1.1//EN" "http://www.w3.org/Graphics/SVG/1.1/DTD/svg11.dtd">
<svg version="1.2" width="260mm" height="260mm" viewBox="0 0 26000 26000" preserveAspectRatio="xMidYMid" fill-rule="evenodd" stroke-width="28.222" stroke-linejoin="round" xmlns="http://www.w3.org/2000/svg" xmlns:ooo="http://xml.openoffice.org/svg/export" xmlns:xlink="http://www.w3.org/1999/xlink" xmlns:presentation="http://sun.com/xmlns/staroffice/presentation" xmlns:smil="http://www.w3.org/2001/SMIL20/" xmlns:anim="urn:oasis:names:tc:opendocument:xmlns:animation:1.0" xml:space="preserve">
 <defs class="ClipPathGroup">
  <clipPath id="presentation_clip_path" clipPathUnits="userSpaceOnUse">
   <rect x="0" y="0" width="26000" height="26000"/>
  </clipPath>
  <clipPath id="presentation_clip_path_shrink" clipPathUnits="userSpaceOnUse">
   <rect x="26" y="26" width="25948" height="25948"/>
  </clipPath>
 </defs>
 <defs class="TextShapeIndex">
  <g ooo:slide="id1" ooo:id-list="id3 id4 id5 id6 id7 id8 id9 id10 id11 id12 id13 id14 id15 id16 id17 id18 id19 id20"/>
 </defs>
 <defs class="EmbeddedBulletChars">
  <g id="bullet-char-template-57356" transform="scale(0.00048828125,-0.00048828125)">
   <path d="M 580,1141 L 1163,571 580,0 -4,571 580,1141 Z"/>
  </g>
  <g id="bullet-char-template-57354" transform="scale(0.00048828125,-0.00048828125)">
   <path d="M 8,1128 L 1137,1128 1137,0 8,0 8,1128 Z"/>
  </g>
  <g id="bullet-char-template-10146" transform="scale(0.00048828125,-0.00048828125)">
   <path d="M 174,0 L 602,739 174,1481 1456,739 174,0 Z M 1358,739 L 309,1346 659,739 1358,739 Z"/>
  </g>
  <g id="bullet-char-template-10132" transform="scale(0.00048828125,-0.00048828125)">
   <path d="M 2015,739 L 1276,0 717,0 1260,543 174,543 174,936 1260,936 717,1481 1274,1481 2015,739 Z"/>
  </g>
  <g id="bullet-char-template-10007" transform="scale(0.00048828125,-0.00048828125)">
   <path d="M 0,-2 C -7,14 -16,27 -25,37 L 356,567 C 262,823 215,952 215,954 215,979 228,992 255,992 264,992 276,990 289,987 310,991 331,999 354,1012 L 381,999 492,748 772,1049 836,1024 860,1049 C 881,1039 901,1025 922,1006 886,937 835,863 770,784 769,783 710,716 594,584 L 774,223 C 774,196 753,168 711,139 L 727,119 C 717,90 699,76 672,76 641,76 570,178 457,381 L 164,-76 C 142,-110 111,-127 72,-127 30,-127 9,-110 8,-76 1,-67 -2,-52 -2,-32 -2,-23 -1,-13 0,-2 Z"/>
  </g>
  <g id="bullet-char-template-10004" transform="scale(0.00048828125,-0.00048828125)">
   <path d="M 285,-33 C 182,-33 111,30 74,156 52,228 41,333 41,471 41,549 55,616 82,672 116,743 169,778 240,778 293,778 328,747 346,684 L 369,508 C 377,444 397,411 428,410 L 1163,1116 C 1174,1127 1196,1133 1229,1133 1271,1133 1292,1118 1292,1087 L 1292,965 C 1292,929 1282,901 1262,881 L 442,47 C 390,-6 338,-33 285,-33 Z"/>
  </g>
  <g id="bullet-char-template-9679" transform="scale(0.00048828125,-0.00048828125)">
   <path d="M 813,0 C 632,0 489,54 383,161 276,268 223,411 223,592 223,773 276,916 383,1023 489,1130 632,1184 813,1184 992,1184 1136,1130 1245,1023 1353,916 1407,772 1407,592 1407,412 1353,268 1245,161 1136,54 992,0 813,0 Z"/>
  </g>
  <g id="bullet-char-template-8226" transform="scale(0.00048828125,-0.00048828125)">
   <path d="M 346,457 C 273,457 209,483 155,535 101,586 74,649 74,723 74,796 101,859 155,911 209,963 273,989 346,989 419,989 480,963 531,910 582,859 608,796 608,723 608,648 583,586 532,535 482,483 420,457 346,457 Z"/>
  </g>
  <g id="bullet-char-template-8211" transform="scale(0.00048828125,-0.00048828125)">
   <path d="M -4,459 L 1135,459 1135,606 -4,606 -4,459 Z"/>
  </g>
  <g id="bullet-char-template-61548" transform="scale(0.00048828125,-0.00048828125)">
   <path d="M 173,740 C 173,903 231,1043 346,1159 462,1274 601,1332 765,1332 928,1332 1067,1274 1183,1159 1299,1043 1357,903 1357,740 1357,577 1299,437 1183,322 1067,206 928,148 765,148 601,148 462,206 346,322 231,437 173,577 173,740 Z"/>
  </g>
 </defs>
 <defs class="TextEmbeddedBitmaps"/>
 <g>
  <g id="id2" class="Master_Slide">
   <g id="bg-id2" class="Background"/>
   <g id="bo-id2" class="BackgroundObjects"/>
  </g>
 </g>
 <g class="SlideGroup">
  <g>
   <g id="container-id1">
    <g id="id1" class="Slide" clip-path="url(#presentation_clip_path)">
     <g class="Page">
      <g class="com.sun.star.drawing.CustomShape">
       <g id="id3">
        <rect class="BoundingBox" stroke="none" fill="none" x="0" y="0" width="26002" height="26002"/>
        <path fill="rgb(200,240,0)" stroke="none" d="M 0,0 L 0,0 0,26001 0,26001 26001,26001 26001,26001 26001,0 26001,0 0,0 Z"/>
       </g>
      </g>
      <g class="Graphic">
       <g id="id4">
        <rect class="BoundingBox" stroke="none" fill="none" x="6000" y="6000" width="14001" height="14001"/>
        <path fill="rgb(200,240,0)" stroke="none" d="M 13000,19997 L 6003,19997 6003,6003 19997,6003 19997,19997 13000,19997 Z"/>
        <path fill="rgb(255,255,255)" stroke="none" d="M 6351,6628 L 6073,6628 6073,6073 6628,6073 6628,6628 6351,6628 Z"/>
        <path fill="rgb(255,255,255)" stroke="none" d="M 6905,6628 L 6628,6628 6628,6073 7182,6073 7182,6628 6905,6628 Z"/>
        <path fill="rgb(255,255,255)" stroke="none" d="M 7459,6628 L 7182,6628 7182,6073 7737,6073 7737,6628 7459,6628 Z"/>
        <path fill="rgb(255,255,255)" stroke="none" d="M 8013,6628 L 7736,6628 7736,6073 8291,6073 8291,6628 8013,6628 Z"/>
        <path fill="rgb(255,255,255)" stroke="none" d="M 8567,6628 L 8290,6628 8290,6073 8845,6073 8845,6628 8567,6628 Z"/>
        <path fill="rgb(255,255,255)" stroke="none" d="M 9121,6628 L 8844,6628 8844,6073 9399,6073 9399,6628 9121,6628 Z"/>
        <path fill="rgb(255,255,255)" stroke="none" d="M 9676,6628 L 9398,6628 9398,6073 9953,6073 9953,6628 9676,6628 Z"/>
        <path fill="rgb(255,255,255)" stroke="none" d="M 11338,6628 L 11061,6628 11061,6073 11615,6073 11615,6628 11338,6628 Z"/>
        <path fill="rgb(255,255,255)" stroke="none" d="M 13554,6628 L 13277,6628 13277,6073 13832,6073 13832,6628 13554,6628 Z"/>
        <path fill="rgb(255,255,255)" stroke="none" d="M 15217,6628 L 14939,6628 14939,6073 15494,6073 15494,6628 15217,6628 Z"/>
        <path fill="rgb(255,255,255)" stroke="none" d="M 16325,6628 L 16048,6628 16048,6073 16602,6073 16602,6628 16325,6628 Z"/>
        <path fill="rgb(255,255,255)" stroke="none" d="M 16879,6628 L 16602,6628 16602,6073 17157,6073 17157,6628 16879,6628 Z"/>
        <path fill="rgb(255,255,255)" stroke="none" d="M 17433,6628 L 17156,6628 17156,6073 17711,6073 17711,6628 17433,6628 Z"/>
        <path fill="rgb(255,255,255)" stroke="none" d="M 17987,6628 L 17710,6628 17710,6073 18265,6073 18265,6628 17987,6628 Z"/>
        <path fill="rgb(255,255,255)" stroke="none" d="M 18542,6628 L 18264,6628 18264,6073 18819,6073 18819,6628 18542,6628 Z"/>
        <path fill="rgb(255,255,255)" stroke="none" d="M 19096,6628 L 18818,6628 18818,6073 19373,6073 19373,6628 19096,6628 Z"/>
        <path fill="rgb(255,255,255)" stroke="none" d="M 19650,6628 L 19372,6628 19372,6073 19927,6073 19927,6628 19650,6628 Z"/>
        <path fill="rgb(255,255,255)" stroke="none" d="M 6351,7182 L 6073,7182 6073,6628 6628,6628 6628,7182 6351,7182 Z"/>
        <path fill="rgb(255,255,255)" stroke="none" d="M 9676,7182 L 9398,7182 9398,6628 9953,6628 9953,7182 9676,7182 Z"/>
        <path fill="rgb(255,255,255)" stroke="none" d="M 10784,7182 L 10506,7182 10506,6628 11061,6628 11061,7182 10784,7182 Z"/>
        <path fill="rgb(255,255,255)" stroke="none" d="M 11338,7182 L 11061,7182 11061,6628 11615,6628 11615,7182 11338,7182 Z"/>
        <path fill="rgb(255,255,255)" stroke="none" d="M 12446,7182 L 12169,7182 12169,6628 12724,6628 12724,7182 12446,7182 Z"/>
        <path fill="rgb(255,255,255)" stroke="none" d="M 13000,7182 L 12723,7182 12723,6628 13278,6628 13278,7182 13000,7182 Z"/>
        <path fill="rgb(255,255,255)" stroke="none" d="M 13554,7182 L 13277,7182 13277,6628 13832,6628 13832,7182 13554,7182 Z"/>
        <path fill="rgb(255,255,255)" stroke="none" d="M 14109,7182 L 13831,7182 13831,6628 14386,6628 14386,7182 14109,7182 Z"/>
        <path fill="rgb(255,255,255)" stroke="none" d="M 14663,7182 L 14385,7182 14385,6628 14940,6628 14940,7182 14663,7182 Z"/>
        <path fill="rgb(255,255,255)" stroke="none" d="M 15217,7182 L 14939,7182 14939,6628 15494,6628 15494,7182 15217,7182 Z"/>
        <path fill="rgb(255,255,255)" stroke="none" d="M 16325,7182 L 16048,7182 16048,6628 16602,6628 16602,7182 16325,7182 Z"/>
        <path fill="rgb(255,255,255)" stroke="none" d="M 19650,7182 L 19372,7182 19372,6628 19927,6628 19927,7182 19650,7182 Z"/>
        <path fill="rgb(255,255,255)" stroke="none" d="M 6351,7737 L 6073,7737 6073,7182 6628,7182 6628,7737 6351,7737 Z"/>
        <path fill="rgb(255,255,255)" stroke="none" d="M 7459,7737 L 7182,7737 7182,7182 7737,7182 7737,7737 7459,7737 Z"/>
        <path fill="rgb(255,255,255)" stroke="none" d="M 8013,7737 L 7736,7737 7736,7182 8291,7182 8291,7737 8013,7737 Z"/>
        <path fill="rgb(255,255,255)" stroke="none" d="M 8567,7737 L 8290,7737 8290,7182 8845,7182 8845,7737 8567,7737 Z"/>
        <path fill="rgb(255,255,255)" stroke="none" d="M 9676,7737 L 9398,7737 9398,7182 9953,7182 9953,7737 9676,7737 Z"/>
        <path fill="rgb(255,255,255)" stroke="none" d="M 11338,7737 L 11061,7737 11061,7182 11615,7182 11615,7737 11338,7737 Z"/>
        <path fill="rgb(255,255,255)" stroke="none" d="M 11892,7737 L 11615,7737 11615,7182 12170,7182 12170,7737 11892,7737 Z"/>
        <path fill="rgb(255,255,255)" stroke="none" d="M 12446,7737 L 12169,7737 12169,7182 12724,7182 12724,7737 12446,7737 Z"/>
        <path fill="rgb(255,255,255)" stroke="none" d="M 14663,7737 L 14385,7737 14385,7182 14940,7182 14940,7737 14663,7737 Z"/>
        <path fill="rgb(255,255,255)" stroke="none" d="M 16325,7737 L 16048,7737 16048,7182 16602,7182 16602,7737 16325,7737 Z"/>
        <path fill="rgb(255,255,255)" stroke="none" d="M 17433,7737 L 17156,7737 17156,7182 17711,7182 17711,7737 17433,7737 Z"/>
        <path fill="rgb(255,255,255)" stroke="none" d="M 17987,7737 L 17710,7737 17710,7182 18265,7182 18265,7737 17987,7737 Z"/>
        <path fill="rgb(255,255,255)" stroke="none" d="M 18542,7737 L 18264,7737 18264,7182 18819,7182 18819,7737 18542,7737 Z"/>
        <path fill="rgb(255,255,255)" stroke="none" d="M 19650,7737 L 19372,7737 19372,7182 19927,7182 19927,7737 19650,7737 Z"/>
        <path fill="rgb(255,255,255)" stroke="none" d="M 6351,8291 L 6073,8291 6073,7736 6628,7736 6628,8291 6351,8291 Z"/>
        <path fill="rgb(255,255,255)" stroke="none" d="M 7459,8291 L 7182,8291 7182,7736 7737,7736 7737,8291 7459,8291 Z"/>
        <path fill="rgb(255,255,255)" stroke="none" d="M 8013,8291 L 7736,8291 7736,7736 8291,7736 8291,8291 8013,8291 Z"/>
        <path fill="rgb(255,255,255)" stroke="none" d="M 8567,8291 L 8290,8291 8290,7736 8845,7736 8845,8291 8567,8291 Z"/>
        <path fill="rgb(255,255,255)" stroke="none" d="M 9676,8291 L 9398,8291 9398,7736 9953,7736 9953,8291 9676,8291 Z"/>
        <path fill="rgb(255,255,255)" stroke="none" d="M 10784,8291 L 10506,8291 10506,7736 11061,7736 11061,8291 10784,8291 Z"/>
        <path fill="rgb(255,255,255)" stroke="none" d="M 11338,8291 L 11061,8291 11061,7736 11615,7736 11615,8291 11338,8291 Z"/>
        <path fill="rgb(255,255,255)" stroke="none" d="M 12446,8291 L 12169,8291 12169,7736 12724,7736 12724,8291 12446,8291 Z"/>
        <path fill="rgb(255,255,255)" stroke="none" d="M 13554,8291 L 13277,8291 13277,7736 13832,7736 13832,8291 13554,8291 Z"/>
        <path fill="rgb(255,255,255)" stroke="none" d="M 14109,8291 L 13831,8291 13831,7736 14386,7736 14386,8291 14109,8291 Z"/>
        <path fill="rgb(255,255,255)" stroke="none" d="M 14663,8291 L 14385,8291 14385,7736 14940,7736 14940,8291 14663,8291 Z"/>
        <path fill="rgb(255,255,255)" stroke="none" d="M 16325,8291 L 16048,8291 16048,7736 16602,7736 16602,8291 16325,8291 Z"/>
        <path fill="rgb(255,255,255)" stroke="none" d="M 17433,8291 L 17156,8291 17156,7736 17711,7736 17711,8291 17433,8291 Z"/>
        <path fill="rgb(255,255,255)" stroke="none" d="M 17987,8291 L 17710,8291 17710,7736 18265,7736 18265,8291 17987,8291 Z"/>
        <path fill="rgb(255,255,255)" stroke="none" d="M 18542,8291 L 18264,8291 18264,7736 18819,7736 18819,8291 18542,8291 Z"/>
        <path fill="rgb(255,255,255)" stroke="none" d="M 19650,8291 L 19372,8291 19372,7736 19927,7736 19927,8291 19650,8291 Z"/>
        <path fill="rgb(255,255,255)" stroke="none" d="M 6351,8845 L 6073,8845 6073,8290 6628,8290 6628,8845 6351,8845 Z"/>
        <path fill="rgb(255,255,255)" stroke="none" d="M 7459,8845 L 7182,8845 7182,8290 7737,8290 7737,8845 7459,8845 Z"/>
        <path fill="rgb(255,255,255)" stroke="none" d="M 8013,8845 L 7736,8845 7736,8290 8291,8290 8291,8845 8013,8845 Z"/>
        <path fill="rgb(255,255,255)" stroke="none" d="M 8567,8845 L 8290,8845 8290,8290 8845,8290 8845,8845 8567,8845 Z"/>
        <path fill="rgb(255,255,255)" stroke="none" d="M 9676,8845 L 9398,8845 9398,8290 9953,8290 9953,8845 9676,8845 Z"/>
        <path fill="rgb(255,255,255)" stroke="none" d="M 11892,8845 L 11615,8845 11615,8290 12170,8290 12170,8845 11892,8845 Z"/>
        <path fill="rgb(255,255,255)" stroke="none" d="M 13000,8845 L 12723,8845 12723,8290 13278,8290 13278,8845 13000,8845 Z"/>
        <path fill="rgb(255,255,255)" stroke="none" d="M 13554,8845 L 13277,8845 13277,8290 13832,8290 13832,8845 13554,8845 Z"/>
        <path fill="rgb(255,255,255)" stroke="none" d="M 15217,8845 L 14939,8845 14939,8290 15494,8290 15494,8845 15217,8845 Z"/>
        <path fill="rgb(255,255,255)" stroke="none" d="M 16325,8845 L 16048,8845 16048,8290 16602,8290 16602,8845 16325,8845 Z"/>
        <path fill="rgb(255,255,255)" stroke="none" d="M 17433,8845 L 17156,8845 17156,8290 17711,8290 17711,8845 17433,8845 Z"/>
        <path fill="rgb(255,255,255)" stroke="none" d="M 17987,8845 L 17710,8845 17710,8290 18265,8290 18265,8845 17987,8845 Z"/>
        <path fill="rgb(255,255,255)" stroke="none" d="M 18542,8845 L 18264,8845 18264,8290 18819,8290 18819,8845 18542,8845 Z"/>
        <path fill="rgb(255,255,255)" stroke="none" d="M 19650,8845 L 19372,8845 19372,8290 19927,8290 19927,8845 19650,8845 Z"/>
        <path fill="rgb(255,255,255)" stroke="none" d="M 6351,9399 L 6073,9399 6073,8844 6628,8844 6628,9399 6351,9399 Z"/>
        <path fill="rgb(255,255,255)" stroke="none" d="M 9676,9399 L 9398,9399 9398,8844 9953,8844 9953,9399 9676,9399 Z"/>
        <path fill="rgb(255,255,255)" stroke="none" d="M 10784,9399 L 10506,9399 10506,8844 11061,8844 11061,9399 10784,9399 Z"/>
        <path fill="rgb(255,255,255)" stroke="none" d="M 11892,9399 L 11615,9399 11615,8844 12170,8844 12170,9399 11892,9399 Z"/>
        <path fill="rgb(255,255,255)" stroke="none" d="M 13554,9399 L 13277,9399 13277,8844 13832,8844 13832,9399 13554,9399 Z"/>
        <path fill="rgb(255,255,255)" stroke="none" d="M 14109,9399 L 13831,9399 13831,8844 14386,8844 14386,9399 14109,9399 Z"/>
        <path fill="rgb(255,255,255)" stroke="none" d="M 14663,9399 L 14385,9399 14385,8844 14940,8844 14940,9399 14663,9399 Z"/>
        <path fill="rgb(255,255,255)" stroke="none" d="M 15217,9399 L 14939,9399 14939,8844 15494,8844 15494,9399 15217,9399 Z"/>
        <path fill="rgb(255,255,255)" stroke="none" d="M 16325,9399 L 16048,9399 16048,8844 16602,8844 16602,9399 16325,9399 Z"/>
        <path fill="rgb(255,255,255)" stroke="none" d="M 19650,9399 L 19372,9399 19372,8844 19927,8844 19927,9399 19650,9399 Z"/>
        <path fill="rgb(255,255,255)" stroke="none" d="M 6351,9953 L 6073,9953 6073,9398 6628,9398 6628,9953 6351,9953 Z"/>
        <path fill="rgb(255,255,255)" stroke="none" d="M 6905,9953 L 6628,9953 6628,9398 7182,9398 7182,9953 6905,9953 Z"/>
        <path fill="rgb(255,255,255)" stroke="none" d="M 7459,9953 L 7182,9953 7182,9398 7737,9398 7737,9953 7459,9953 Z"/>
        <path fill="rgb(255,255,255)" stroke="none" d="M 8013,9953 L 7736,9953 7736,9398 8291,9398 8291,9953 8013,9953 Z"/>
        <path fill="rgb(255,255,255)" stroke="none" d="M 8567,9953 L 8290,9953 8290,9398 8845,9398 8845,9953 8567,9953 Z"/>
        <path fill="rgb(255,255,255)" stroke="none" d="M 9121,9953 L 8844,9953 8844,9398 9399,9398 9399,9953 9121,9953 Z"/>
        <path fill="rgb(255,255,255)" stroke="none" d="M 9676,9953 L 9398,9953 9398,9398 9953,9398 9953,9953 9676,9953 Z"/>
        <path fill="rgb(255,255,255)" stroke="none" d="M 10784,9953 L 10506,9953 10506,9398 11061,9398 11061,9953 10784,9953 Z"/>
        <path fill="rgb(255,255,255)" stroke="none" d="M 11892,9953 L 11615,9953 11615,9398 12170,9398 12170,9953 11892,9953 Z"/>
        <path fill="rgb(255,255,255)" stroke="none" d="M 13000,9953 L 12723,9953 12723,9398 13278,9398 13278,9953 13000,9953 Z"/>
        <path fill="rgb(255,255,255)" stroke="none" d="M 14109,9953 L 13831,9953 13831,9398 14386,9398 14386,9953 14109,9953 Z"/>
        <path fill="rgb(255,255,255)" stroke="none" d="M 15217,9953 L 14939,9953 14939,9398 15494,9398 15494,9953 15217,9953 Z"/>
        <path fill="rgb(255,255,255)" stroke="none" d="M 16325,9953 L 16048,9953 16048,9398 16602,9398 16602,9953 16325,9953 Z"/>
        <path fill="rgb(255,255,255)" stroke="none" d="M 16879,9953 L 16602,9953 16602,9398 17157,9398 17157,9953 16879,9953 Z"/>
        <path fill="rgb(255,255,255)" stroke="none" d="M 17433,9953 L 17156,9953 17156,9398 17711,9398 17711,9953 17433,9953 Z"/>
        <path fill="rgb(255,255,255)" stroke="none" d="M 17987,9953 L 17710,9953 17710,9398 18265,9398 18265,9953 17987,9953 Z"/>
        <path fill="rgb(255,255,255)" stroke="none" d="M 18542,9953 L 18264,9953 18264,9398 18819,9398 18819,9953 18542,9953 Z"/>
        <path fill="rgb(255,255,255)" stroke="none" d="M 19096,9953 L 18818,9953 18818,9398 19373,9398 19373,9953 19096,9953 Z"/>
        <path fill="rgb(255,255,255)" stroke="none" d="M 19650,9953 L 19372,9953 19372,9398 19927,9398 19927,9953 19650,9953 Z"/>
        <path fill="rgb(255,255,255)" stroke="none" d="M 13000,10507 L 12723,10507 12723,9952 13278,9952 13278,10507 13000,10507 Z"/>
        <path fill="rgb(255,255,255)" stroke="none" d="M 6351,11061 L 6073,11061 6073,10506 6628,10506 6628,11061 6351,11061 Z"/>
        <path fill="rgb(255,255,255)" stroke="none" d="M 6905,11061 L 6628,11061 6628,10506 7182,10506 7182,11061 6905,11061 Z"/>
        <path fill="rgb(255,255,255)" stroke="none" d="M 7459,11061 L 7182,11061 7182,10506 7737,10506 7737,11061 7459,11061 Z"/>
        <path fill="rgb(255,255,255)" stroke="none" d="M 8013,11061 L 7736,11061 7736,10506 8291,10506 8291,11061 8013,11061 Z"/>
        <path fill="rgb(255,255,255)" stroke="none" d="M 8567,11061 L 8290,11061 8290,10506 8845,10506 8845,11061 8567,11061 Z"/>
        <path fill="rgb(255,255,255)" stroke="none" d="M 9676,11061 L 9398,11061 9398,10506 9953,10506 9953,11061 9676,11061 Z"/>
        <path fill="rgb(255,255,255)" stroke="none" d="M 10230,11061 L 9952,11061 9952,10506 10507,10506 10507,11061 10230,11061 Z"/>
        <path fill="rgb(255,255,255)" stroke="none" d="M 10784,11061 L 10506,11061 10506,10506 11061,10506 11061,11061 10784,11061 Z"/>
        <path fill="rgb(255,255,255)" stroke="none" d="M 11338,11061 L 11061,11061 11061,10506 11615,10506 11615,11061 11338,11061 Z"/>
        <path fill="rgb(255,255,255)" stroke="none" d="M 11892,11061 L 11615,11061 11615,10506 12170,10506 12170,11061 11892,11061 Z"/>
        <path fill="rgb(255,255,255)" stroke="none" d="M 13000,11061 L 12723,11061 12723,10506 13278,10506 13278,11061 13000,11061 Z"/>
        <path fill="rgb(255,255,255)" stroke="none" d="M 13554,11061 L 13277,11061 13277,10506 13832,10506 13832,11061 13554,11061 Z"/>
        <path fill="rgb(255,255,255)" stroke="none" d="M 14109,11061 L 13831,11061 13831,10506 14386,10506 14386,11061 14109,11061 Z"/>
        <path fill="rgb(255,255,255)" stroke="none" d="M 14663,11061 L 14385,11061 14385,10506 14940,10506 14940,11061 14663,11061 Z"/>
        <path fill="rgb(255,255,255)" stroke="none" d="M 15771,11061 L 15494,11061 15494,10506 16048,10506 16048,11061 15771,11061 Z"/>
        <path fill="rgb(255,255,255)" stroke="none" d="M 16879,11061 L 16602,11061 16602,10506 17157,10506 17157,11061 16879,11061 Z"/>
        <path fill="rgb(255,255,255)" stroke="none" d="M 17987,11061 L 17710,11061 17710,10506 18265,10506 18265,11061 17987,11061 Z"/>
        <path fill="rgb(255,255,255)" stroke="none" d="M 19096,11061 L 18818,11061 18818,10506 19373,10506 19373,11061 19096,11061 Z"/>
        <path fill="rgb(255,255,255)" stroke="none" d="M 6351,11615 L 6073,11615 6073,11061 6628,11061 6628,11615 6351,11615 Z"/>
        <path fill="rgb(255,255,255)" stroke="none" d="M 8013,11615 L 7736,11615 7736,11061 8291,11061 8291,11615 8013,11615 Z"/>
        <path fill="rgb(255,255,255)" stroke="none" d="M 8567,11615 L 8290,11615 8290,11061 8845,11061 8845,11615 8567,11615 Z"/>
        <path fill="rgb(255,255,255)" stroke="none" d="M 10230,11615 L 9952,11615 9952,11061 10507,11061 10507,11615 10230,11615 Z"/>
        <path fill="rgb(255,255,255)" stroke="none" d="M 11338,11615 L 11061,11615 11061,11061 11615,11061 11615,11615 11338,11615 Z"/>
        <path fill="rgb(255,255,255)" stroke="none" d="M 15217,11615 L 14939,11615 14939,11061 15494,11061 15494,11615 15217,11615 Z"/>
        <path fill="rgb(255,255,255)" stroke="none" d="M 16325,11615 L 16048,11615 16048,11061 16602,11061 16602,11615 16325,11615 Z"/>
        <path fill="rgb(255,255,255)" stroke="none" d="M 16879,11615 L 16602,11615 16602,11061 17157,11061 17157,11615 16879,11615 Z"/>
        <path fill="rgb(255,255,255)" stroke="none" d="M 19096,11615 L 18818,11615 18818,11061 19373,11061 19373,11615 19096,11615 Z"/>
        <path fill="rgb(255,255,255)" stroke="none" d="M 6351,12170 L 6073,12170 6073,11615 6628,11615 6628,12170 6351,12170 Z"/>
        <path fill="rgb(255,255,255)" stroke="none" d="M 6905,12170 L 6628,12170 6628,11615 7182,11615 7182,12170 6905,12170 Z"/>
        <path fill="rgb(255,255,255)" stroke="none" d="M 7459,12170 L 7182,12170 7182,11615 7737,11615 7737,12170 7459,12170 Z"/>
        <path fill="rgb(255,255,255)" stroke="none" d="M 8567,12170 L 8290,12170 8290,11615 8845,11615 8845,12170 8567,12170 Z"/>
        <path fill="rgb(255,255,255)" stroke="none" d="M 9121,12170 L 8844,12170 8844,11615 9399,11615 9399,12170 9121,12170 Z"/>
        <path fill="rgb(255,255,255)" stroke="none" d="M 9676,12170 L 9398,12170 9398,11615 9953,11615 9953,12170 9676,12170 Z"/>
        <path fill="rgb(255,255,255)" stroke="none" d="M 10784,12170 L 10506,12170 10506,11615 11061,11615 11061,12170 10784,12170 Z"/>
        <path fill="rgb(255,255,255)" stroke="none" d="M 11338,12170 L 11061,12170 11061,11615 11615,11615 11615,12170 11338,12170 Z"/>
        <path fill="rgb(255,255,255)" stroke="none" d="M 12446,12170 L 12169,12170 12169,11615 12724,11615 12724,12170 12446,12170 Z"/>
        <path fill="rgb(255,255,255)" stroke="none" d="M 13000,12170 L 12723,12170 12723,11615 13278,11615 13278,12170 13000,12170 Z"/>
        <path fill="rgb(255,255,255)" stroke="none" d="M 14109,12170 L 13831,12170 13831,11615 14386,11615 14386,12170 14109,12170 Z"/>
        <path fill="rgb(255,255,255)" stroke="none" d="M 14663,12170 L 14385,12170 14385,11615 14940,11615 14940,12170 14663,12170 Z"/>
        <path fill="rgb(255,255,255)" stroke="none" d="M 15217,12170 L 14939,12170 14939,11615 15494,11615 15494,12170 15217,12170 Z"/>
        <path fill="rgb(255,255,255)" stroke="none" d="M 16325,12170 L 16048,12170 16048,11615 16602,11615 16602,12170 16325,12170 Z"/>
        <path fill="rgb(255,255,255)" stroke="none" d="M 16879,12170 L 16602,12170 16602,11615 17157,11615 17157,12170 16879,12170 Z"/>
        <path fill="rgb(255,255,255)" stroke="none" d="M 17987,12170 L 17710,12170 17710,11615 18265,11615 18265,12170 17987,12170 Z"/>
        <path fill="rgb(255,255,255)" stroke="none" d="M 19096,12170 L 18818,12170 18818,11615 19373,11615 19373,12170 19096,12170 Z"/>
        <path fill="rgb(255,255,255)" stroke="none" d="M 19650,12170 L 19372,12170 19372,11615 19927,11615 19927,12170 19650,12170 Z"/>
        <path fill="rgb(255,255,255)" stroke="none" d="M 6351,12724 L 6073,12724 6073,12169 6628,12169 6628,12724 6351,12724 Z"/>
        <path fill="rgb(255,255,255)" stroke="none" d="M 8013,12724 L 7736,12724 7736,12169 8291,12169 8291,12724 8013,12724 Z"/>
        <path fill="rgb(255,255,255)" stroke="none" d="M 10230,12724 L 9952,12724 9952,12169 10507,12169 10507,12724 10230,12724 Z"/>
        <path fill="rgb(255,255,255)" stroke="none" d="M 11338,12724 L 11061,12724 11061,12169 11615,12169 11615,12724 11338,12724 Z"/>
        <path fill="rgb(255,255,255)" stroke="none" d="M 11892,12724 L 11615,12724 11615,12169 12170,12169 12170,12724 11892,12724 Z"/>
        <path fill="rgb(255,255,255)" stroke="none" d="M 12446,12724 L 12169,12724 12169,12169 12724,12169 12724,12724 12446,12724 Z"/>
        <path fill="rgb(255,255,255)" stroke="none" d="M 14109,12724 L 13831,12724 13831,12169 14386,12169 14386,12724 14109,12724 Z"/>
        <path fill="rgb(255,255,255)" stroke="none" d="M 15771,12724 L 15494,12724 15494,12169 16048,12169 16048,12724 15771,12724 Z"/>
        <path fill="rgb(255,255,255)" stroke="none" d="M 16879,12724 L 16602,12724 16602,12169 17157,12169 17157,12724 16879,12724 Z"/>
        <path fill="rgb(255,255,255)" stroke="none" d="M 17433,12724 L 17156,12724 17156,12169 17711,12169 17711,12724 17433,12724 Z"/>
        <path fill="rgb(255,255,255)" stroke="none" d="M 19096,12724 L 18818,12724 18818,12169 19373,12169 19373,12724 19096,12724 Z"/>
        <path fill="rgb(255,255,255)" stroke="none" d="M 19650,12724 L 19372,12724 19372,12169 19927,12169 19927,12724 19650,12724 Z"/>
        <path fill="rgb(255,255,255)" stroke="none" d="M 6351,13278 L 6073,13278 6073,12723 6628,12723 6628,13278 6351,13278 Z"/>
        <path fill="rgb(255,255,255)" stroke="none" d="M 9121,13278 L 8844,13278 8844,12723 9399,12723 9399,13278 9121,13278 Z"/>
        <path fill="rgb(255,255,255)" stroke="none" d="M 9676,13278 L 9398,13278 9398,12723 9953,12723 9953,13278 9676,13278 Z"/>
        <path fill="rgb(255,255,255)" stroke="none" d="M 10230,13278 L 9952,13278 9952,12723 10507,12723 10507,13278 10230,13278 Z"/>
        <path fill="rgb(255,255,255)" stroke="none" d="M 10784,13278 L 10506,13278 10506,12723 11061,12723 11061,13278 10784,13278 Z"/>
        <path fill="rgb(255,255,255)" stroke="none" d="M 11338,13278 L 11061,13278 11061,12723 11615,12723 11615,13278 11338,13278 Z"/>
        <path fill="rgb(255,255,255)" stroke="none" d="M 12446,13278 L 12169,13278 12169,12723 12724,12723 12724,13278 12446,13278 Z"/>
        <path fill="rgb(255,255,255)" stroke="none" d="M 13554,13278 L 13277,13278 13277,12723 13832,12723 13832,13278 13554,13278 Z"/>
        <path fill="rgb(255,255,255)" stroke="none" d="M 14109,13278 L 13831,13278 13831,12723 14386,12723 14386,13278 14109,13278 Z"/>
        <path fill="rgb(255,255,255)" stroke="none" d="M 14663,13278 L 14385,13278 14385,12723 14940,12723 14940,13278 14663,13278 Z"/>
        <path fill="rgb(255,255,255)" stroke="none" d="M 15217,13278 L 14939,13278 14939,12723 15494,12723 15494,13278 15217,13278 Z"/>
        <path fill="rgb(255,255,255)" stroke="none" d="M 15771,13278 L 15494,13278 15494,12723 16048,12723 16048,13278 15771,13278 Z"/>
        <path fill="rgb(255,255,255)" stroke="none" d="M 16325,13278 L 16048,13278 16048,12723 16602,12723 16602,13278 16325,13278 Z"/>
        <path fill="rgb(255,255,255)" stroke="none" d="M 17433,13278 L 17156,13278 17156,12723 17711,12723 17711,13278 17433,13278 Z"/>
        <path fill="rgb(255,255,255)" stroke="none" d="M 18542,13278 L 18264,13278 18264,12723 18819,12723 18819,13278 18542,13278 Z"/>
        <path fill="rgb(255,255,255)" stroke="none" d="M 19096,13278 L 18818,13278 18818,12723 19373,12723 19373,13278 19096,13278 Z"/>
        <path fill="rgb(255,255,255)" stroke="none" d="M 19650,13278 L 19372,13278 19372,12723 19927,12723 19927,13278 19650,13278 Z"/>
        <path fill="rgb(255,255,255)" stroke="none" d="M 6351,13832 L 6073,13832 6073,13277 6628,13277 6628,13832 6351,13832 Z"/>
        <path fill="rgb(255,255,255)" stroke="none" d="M 7459,13832 L 7182,13832 7182,13277 7737,13277 7737,13832 7459,13832 Z"/>
        <path fill="rgb(255,255,255)" stroke="none" d="M 8567,13832 L 8290,13832 8290,13277 8845,13277 8845,13832 8567,13832 Z"/>
        <path fill="rgb(255,255,255)" stroke="none" d="M 11338,13832 L 11061,13832 11061,13277 11615,13277 11615,13832 11338,13832 Z"/>
        <path fill="rgb(255,255,255)" stroke="none" d="M 11892,13832 L 11615,13832 11615,13277 12170,13277 12170,13832 11892,13832 Z"/>
        <path fill="rgb(255,255,255)" stroke="none" d="M 13000,13832 L 12723,13832 12723,13277 13278,13277 13278,13832 13000,13832 Z"/>
        <path fill="rgb(255,255,255)" stroke="none" d="M 13554,13832 L 13277,13832 13277,13277 13832,13277 13832,13832 13554,13832 Z"/>
        <path fill="rgb(255,255,255)" stroke="none" d="M 14663,13832 L 14385,13832 14385,13277 14940,13277 14940,13832 14663,13832 Z"/>
        <path fill="rgb(255,255,255)" stroke="none" d="M 15217,13832 L 14939,13832 14939,13277 15494,13277 15494,13832 15217,13832 Z"/>
        <path fill="rgb(255,255,255)" stroke="none" d="M 17987,13832 L 17710,13832 17710,13277 18265,13277 18265,13832 17987,13832 Z"/>
        <path fill="rgb(255,255,255)" stroke="none" d="M 18542,13832 L 18264,13832 18264,13277 18819,13277 18819,13832 18542,13832 Z"/>
        <path fill="rgb(255,255,255)" stroke="none" d="M 6351,14386 L 6073,14386 6073,13831 6628,13831 6628,14386 6351,14386 Z"/>
        <path fill="rgb(255,255,255)" stroke="none" d="M 9121,14386 L 8844,14386 8844,13831 9399,13831 9399,14386 9121,14386 Z"/>
        <path fill="rgb(255,255,255)" stroke="none" d="M 9676,14386 L 9398,14386 9398,13831 9953,13831 9953,14386 9676,14386 Z"/>
        <path fill="rgb(255,255,255)" stroke="none" d="M 10230,14386 L 9952,14386 9952,13831 10507,13831 10507,14386 10230,14386 Z"/>
        <path fill="rgb(255,255,255)" stroke="none" d="M 11338,14386 L 11061,14386 11061,13831 11615,13831 11615,14386 11338,14386 Z"/>
        <path fill="rgb(255,255,255)" stroke="none" d="M 13554,14386 L 13277,14386 13277,13831 13832,13831 13832,14386 13554,14386 Z"/>
        <path fill="rgb(255,255,255)" stroke="none" d="M 14109,14386 L 13831,14386 13831,13831 14386,13831 14386,14386 14109,14386 Z"/>
        <path fill="rgb(255,255,255)" stroke="none" d="M 14663,14386 L 14385,14386 14385,13831 14940,13831 14940,14386 14663,14386 Z"/>
        <path fill="rgb(255,255,255)" stroke="none" d="M 15771,14386 L 15494,14386 15494,13831 16048,13831 16048,14386 15771,14386 Z"/>
        <path fill="rgb(255,255,255)" stroke="none" d="M 17433,14386 L 17156,14386 17156,13831 17711,13831 17711,14386 17433,14386 Z"/>
        <path fill="rgb(255,255,255)" stroke="none" d="M 17987,14386 L 17710,14386 17710,13831 18265,13831 18265,14386 17987,14386 Z"/>
        <path fill="rgb(255,255,255)" stroke="none" d="M 18542,14386 L 18264,14386 18264,13831 18819,13831 18819,14386 18542,14386 Z"/>
        <path fill="rgb(255,255,255)" stroke="none" d="M 19096,14386 L 18818,14386 18818,13831 19373,13831 19373,14386 19096,14386 Z"/>
        <path fill="rgb(255,255,255)" stroke="none" d="M 19650,14386 L 19372,14386 19372,13831 19927,13831 19927,14386 19650,14386 Z"/>
        <path fill="rgb(255,255,255)" stroke="none" d="M 6351,14940 L 6073,14940 6073,14385 6628,14385 6628,14940 6351,14940 Z"/>
        <path fill="rgb(255,255,255)" stroke="none" d="M 8013,14940 L 7736,14940 7736,14385 8291,14385 8291,14940 8013,14940 Z"/>
        <path fill="rgb(255,255,255)" stroke="none" d="M 9121,14940 L 8844,14940 8844,14385 9399,14385 9399,14940 9121,14940 Z"/>
        <path fill="rgb(255,255,255)" stroke="none" d="M 11338,14940 L 11061,14940 11061,14385 11615,14385 11615,14940 11338,14940 Z"/>
        <path fill="rgb(255,255,255)" stroke="none" d="M 13000,14940 L 12723,14940 12723,14385 13278,14385 13278,14940 13000,14940 Z"/>
        <path fill="rgb(255,255,255)" stroke="none" d="M 14663,14940 L 14385,14940 14385,14385 14940,14385 14940,14940 14663,14940 Z"/>
        <path fill="rgb(255,255,255)" stroke="none" d="M 15771,14940 L 15494,14940 15494,14385 16048,14385 16048,14940 15771,14940 Z"/>
        <path fill="rgb(255,255,255)" stroke="none" d="M 6351,15494 L 6073,15494 6073,14939 6628,14939 6628,15494 6351,15494 Z"/>
        <path fill="rgb(255,255,255)" stroke="none" d="M 8013,15494 L 7736,15494 7736,14939 8291,14939 8291,15494 8013,15494 Z"/>
        <path fill="rgb(255,255,255)" stroke="none" d="M 8567,15494 L 8290,15494 8290,14939 8845,14939 8845,15494 8567,15494 Z"/>
        <path fill="rgb(255,255,255)" stroke="none" d="M 9121,15494 L 8844,15494 8844,14939 9399,14939 9399,15494 9121,15494 Z"/>
        <path fill="rgb(255,255,255)" stroke="none" d="M 9676,15494 L 9398,15494 9398,14939 9953,14939 9953,15494 9676,15494 Z"/>
        <path fill="rgb(255,255,255)" stroke="none" d="M 10230,15494 L 9952,15494 9952,14939 10507,14939 10507,15494 10230,15494 Z"/>
        <path fill="rgb(255,255,255)" stroke="none" d="M 11338,15494 L 11061,15494 11061,14939 11615,14939 11615,15494 11338,15494 Z"/>
        <path fill="rgb(255,255,255)" stroke="none" d="M 11892,15494 L 11615,15494 11615,14939 12170,14939 12170,15494 11892,15494 Z"/>
        <path fill="rgb(255,255,255)" stroke="none" d="M 13000,15494 L 12723,15494 12723,14939 13278,14939 13278,15494 13000,15494 Z"/>
        <path fill="rgb(255,255,255)" stroke="none" d="M 13554,15494 L 13277,15494 13277,14939 13832,14939 13832,15494 13554,15494 Z"/>
        <path fill="rgb(255,255,255)" stroke="none" d="M 14663,15494 L 14385,15494 14385,14939 14940,14939 14940,15494 14663,15494 Z"/>
        <path fill="rgb(255,255,255)" stroke="none" d="M 15217,15494 L 14939,15494 14939,14939 15494,14939 15494,15494 15217,15494 Z"/>
        <path fill="rgb(255,255,255)" stroke="none" d="M 15771,15494 L 15494,15494 15494,14939 16048,14939 16048,15494 15771,15494 Z"/>
        <path fill="rgb(255,255,255)" stroke="none" d="M 16325,15494 L 16048,15494 16048,14939 16602,14939 16602,15494 16325,15494 Z"/>
        <path fill="rgb(255,255,255)" stroke="none" d="M 16879,15494 L 16602,15494 16602,14939 17157,14939 17157,15494 16879,15494 Z"/>
        <path fill="rgb(255,255,255)" stroke="none" d="M 17433,15494 L 17156,15494 17156,14939 17711,14939 17711,15494 17433,15494 Z"/>
        <path fill="rgb(255,255,255)" stroke="none" d="M 18542,15494 L 18264,15494 18264,14939 18819,14939 18819,15494 18542,15494 Z"/>
        <path fill="rgb(255,255,255)" stroke="none" d="M 10784,16048 L 10506,16048 10506,15494 11061,15494 11061,16048 10784,16048 Z"/>
        <path fill="rgb(255,255,255)" stroke="none" d="M 11338,16048 L 11061,16048 11061,15494 11615,15494 11615,16048 11338,16048 Z"/>
        <path fill="rgb(255,255,255)" stroke="none" d="M 11892,16048 L 11615,16048 11615,15494 12170,15494 12170,16048 11892,16048 Z"/>
        <path fill="rgb(255,255,255)" stroke="none" d="M 14663,16048 L 14385,16048 14385,15494 14940,15494 14940,16048 14663,16048 Z"/>
        <path fill="rgb(255,255,255)" stroke="none" d="M 15217,16048 L 14939,16048 14939,15494 15494,15494 15494,16048 15217,16048 Z"/>
        <path fill="rgb(255,255,255)" stroke="none" d="M 17433,16048 L 17156,16048 17156,15494 17711,15494 17711,16048 17433,16048 Z"/>
        <path fill="rgb(255,255,255)" stroke="none" d="M 19650,16048 L 19372,16048 19372,15494 19927,15494 19927,16048 19650,16048 Z"/>
        <path fill="rgb(255,255,255)" stroke="none" d="M 6351,16602 L 6073,16602 6073,16048 6628,16048 6628,16602 6351,16602 Z"/>
        <path fill="rgb(255,255,255)" stroke="none" d="M 6905,16602 L 6628,16602 6628,16048 7182,16048 7182,16602 6905,16602 Z"/>
        <path fill="rgb(255,255,255)" stroke="none" d="M 7459,16602 L 7182,16602 7182,16048 7737,16048 7737,16602 7459,16602 Z"/>
        <path fill="rgb(255,255,255)" stroke="none" d="M 8013,16602 L 7736,16602 7736,16048 8291,16048 8291,16602 8013,16602 Z"/>
        <path fill="rgb(255,255,255)" stroke="none" d="M 8567,16602 L 8290,16602 8290,16048 8845,16048 8845,16602 8567,16602 Z"/>
        <path fill="rgb(255,255,255)" stroke="none" d="M 9121,16602 L 8844,16602 8844,16048 9399,16048 9399,16602 9121,16602 Z"/>
        <path fill="rgb(255,255,255)" stroke="none" d="M 9676,16602 L 9398,16602 9398,16048 9953,16048 9953,16602 9676,16602 Z"/>
        <path fill="rgb(255,255,255)" stroke="none" d="M 10784,16602 L 10506,16602 10506,16048 11061,16048 11061,16602 10784,16602 Z"/>
        <path fill="rgb(255,255,255)" stroke="none" d="M 12446,16602 L 12169,16602 12169,16048 12724,16048 12724,16602 12446,16602 Z"/>
        <path fill="rgb(255,255,255)" stroke="none" d="M 13000,16602 L 12723,16602 12723,16048 13278,16048 13278,16602 13000,16602 Z"/>
        <path fill="rgb(255,255,255)" stroke="none" d="M 15217,16602 L 14939,16602 14939,16048 15494,16048 15494,16602 15217,16602 Z"/>
        <path fill="rgb(255,255,255)" stroke="none" d="M 16325,16602 L 16048,16602 16048,16048 16602,16048 16602,16602 16325,16602 Z"/>
        <path fill="rgb(255,255,255)" stroke="none" d="M 17433,16602 L 17156,16602 17156,16048 17711,16048 17711,16602 17433,16602 Z"/>
        <path fill="rgb(255,255,255)" stroke="none" d="M 17987,16602 L 17710,16602 17710,16048 18265,16048 18265,16602 17987,16602 Z"/>
        <path fill="rgb(255,255,255)" stroke="none" d="M 19096,16602 L 18818,16602 18818,16048 19373,16048 19373,16602 19096,16602 Z"/>
        <path fill="rgb(255,255,255)" stroke="none" d="M 19650,16602 L 19372,16602 19372,16048 19927,16048 19927,16602 19650,16602 Z"/>
        <path fill="rgb(255,255,255)" stroke="none" d="M 6351,17157 L 6073,17157 6073,16602 6628,16602 6628,17157 6351,17157 Z"/>
        <path fill="rgb(255,255,255)" stroke="none" d="M 9676,17157 L 9398,17157 9398,16602 9953,16602 9953,17157 9676,17157 Z"/>
        <path fill="rgb(255,255,255)" stroke="none" d="M 11892,17157 L 11615,17157 11615,16602 12170,16602 12170,17157 11892,17157 Z"/>
        <path fill="rgb(255,255,255)" stroke="none" d="M 12446,17157 L 12169,17157 12169,16602 12724,16602 12724,17157 12446,17157 Z"/>
        <path fill="rgb(255,255,255)" stroke="none" d="M 14109,17157 L 13831,17157 13831,16602 14386,16602 14386,17157 14109,17157 Z"/>
        <path fill="rgb(255,255,255)" stroke="none" d="M 14663,17157 L 14385,17157 14385,16602 14940,16602 14940,17157 14663,17157 Z"/>
        <path fill="rgb(255,255,255)" stroke="none" d="M 15217,17157 L 14939,17157 14939,16602 15494,16602 15494,17157 15217,17157 Z"/>
        <path fill="rgb(255,255,255)" stroke="none" d="M 17433,17157 L 17156,17157 17156,16602 17711,16602 17711,17157 17433,17157 Z"/>
        <path fill="rgb(255,255,255)" stroke="none" d="M 17987,17157 L 17710,17157 17710,16602 18265,16602 18265,17157 17987,17157 Z"/>
        <path fill="rgb(255,255,255)" stroke="none" d="M 6351,17711 L 6073,17711 6073,17156 6628,17156 6628,17711 6351,17711 Z"/>
        <path fill="rgb(255,255,255)" stroke="none" d="M 7459,17711 L 7182,17711 7182,17156 7737,17156 7737,17711 7459,17711 Z"/>
        <path fill="rgb(255,255,255)" stroke="none" d="M 8013,17711 L 7736,17711 7736,17156 8291,17156 8291,17711 8013,17711 Z"/>
        <path fill="rgb(255,255,255)" stroke="none" d="M 8567,17711 L 8290,17711 8290,17156 8845,17156 8845,17711 8567,17711 Z"/>
        <path fill="rgb(255,255,255)" stroke="none" d="M 9676,17711 L 9398,17711 9398,17156 9953,17156 9953,17711 9676,17711 Z"/>
        <path fill="rgb(255,255,255)" stroke="none" d="M 10784,17711 L 10506,17711 10506,17156 11061,17156 11061,17711 10784,17711 Z"/>
        <path fill="rgb(255,255,255)" stroke="none" d="M 12446,17711 L 12169,17711 12169,17156 12724,17156 12724,17711 12446,17711 Z"/>
        <path fill="rgb(255,255,255)" stroke="none" d="M 14663,17711 L 14385,17711 14385,17156 14940,17156 14940,17711 14663,17711 Z"/>
        <path fill="rgb(255,255,255)" stroke="none" d="M 15217,17711 L 14939,17711 14939,17156 15494,17156 15494,17711 15217,17711 Z"/>
        <path fill="rgb(255,255,255)" stroke="none" d="M 15771,17711 L 15494,17711 15494,17156 16048,17156 16048,17711 15771,17711 Z"/>
        <path fill="rgb(255,255,255)" stroke="none" d="M 16325,17711 L 16048,17711 16048,17156 16602,17156 16602,17711 16325,17711 Z"/>
        <path fill="rgb(255,255,255)" stroke="none" d="M 16879,17711 L 16602,17711 16602,17156 17157,17156 17157,17711 16879,17711 Z"/>
        <path fill="rgb(255,255,255)" stroke="none" d="M 17433,17711 L 17156,17711 17156,17156 17711,17156 17711,17711 17433,17711 Z"/>
        <path fill="rgb(255,255,255)" stroke="none" d="M 17987,17711 L 17710,17711 17710,17156 18265,17156 18265,17711 17987,17711 Z"/>
        <path fill="rgb(255,255,255)" stroke="none" d="M 18542,17711 L 18264,17711 18264,17156 18819,17156 18819,17711 18542,17711 Z"/>
        <path fill="rgb(255,255,255)" stroke="none" d="M 19096,17711 L 18818,17711 18818,17156 19373,17156 19373,17711 19096,17711 Z"/>
        <path fill="rgb(255,255,255)" stroke="none" d="M 19650,17711 L 19372,17711 19372,17156 19927,17156 19927,17711 19650,17711 Z"/>
        <path fill="rgb(255,255,255)" stroke="none" d="M 6351,18265 L 6073,18265 6073,17710 6628,17710 6628,18265 6351,18265 Z"/>
        <path fill="rgb(255,255,255)" stroke="none" d="M 7459,18265 L 7182,18265 7182,17710 7737,17710 7737,18265 7459,18265 Z"/>
        <path fill="rgb(255,255,255)" stroke="none" d="M 8013,18265 L 7736,18265 7736,17710 8291,17710 8291,18265 8013,18265 Z"/>
        <path fill="rgb(255,255,255)" stroke="none" d="M 8567,18265 L 8290,18265 8290,17710 8845,17710 8845,18265 8567,18265 Z"/>
        <path fill="rgb(255,255,255)" stroke="none" d="M 9676,18265 L 9398,18265 9398,17710 9953,17710 9953,18265 9676,18265 Z"/>
        <path fill="rgb(255,255,255)" stroke="none" d="M 10784,18265 L 10506,18265 10506,17710 11061,17710 11061,18265 10784,18265 Z"/>
        <path fill="rgb(255,255,255)" stroke="none" d="M 11338,18265 L 11061,18265 11061,17710 11615,17710 11615,18265 11338,18265 Z"/>
        <path fill="rgb(255,255,255)" stroke="none" d="M 11892,18265 L 11615,18265 11615,17710 12170,17710 12170,18265 11892,18265 Z"/>
        <path fill="rgb(255,255,255)" stroke="none" d="M 13000,18265 L 12723,18265 12723,17710 13278,17710 13278,18265 13000,18265 Z"/>
        <path fill="rgb(255,255,255)" stroke="none" d="M 13554,18265 L 13277,18265 13277,17710 13832,17710 13832,18265 13554,18265 Z"/>
        <path fill="rgb(255,255,255)" stroke="none" d="M 15771,18265 L 15494,18265 15494,17710 16048,17710 16048,18265 15771,18265 Z"/>
        <path fill="rgb(255,255,255)" stroke="none" d="M 16325,18265 L 16048,18265 16048,17710 16602,17710 16602,18265 16325,18265 Z"/>
        <path fill="rgb(255,255,255)" stroke="none" d="M 16879,18265 L 16602,18265 16602,17710 17157,17710 17157,18265 16879,18265 Z"/>
        <path fill="rgb(255,255,255)" stroke="none" d="M 17987,18265 L 17710,18265 17710,17710 18265,17710 18265,18265 17987,18265 Z"/>
        <path fill="rgb(255,255,255)" stroke="none" d="M 19096,18265 L 18818,18265 18818,17710 19373,17710 19373,18265 19096,18265 Z"/>
        <path fill="rgb(255,255,255)" stroke="none" d="M 19650,18265 L 19372,18265 19372,17710 19927,17710 19927,18265 19650,18265 Z"/>
        <path fill="rgb(255,255,255)" stroke="none" d="M 6351,18819 L 6073,18819 6073,18264 6628,18264 6628,18819 6351,18819 Z"/>
        <path fill="rgb(255,255,255)" stroke="none" d="M 7459,18819 L 7182,18819 7182,18264 7737,18264 7737,18819 7459,18819 Z"/>
        <path fill="rgb(255,255,255)" stroke="none" d="M 8013,18819 L 7736,18819 7736,18264 8291,18264 8291,18819 8013,18819 Z"/>
        <path fill="rgb(255,255,255)" stroke="none" d="M 8567,18819 L 8290,18819 8290,18264 8845,18264 8845,18819 8567,18819 Z"/>
        <path fill="rgb(255,255,255)" stroke="none" d="M 9676,18819 L 9398,18819 9398,18264 9953,18264 9953,18819 9676,18819 Z"/>
        <path fill="rgb(255,255,255)" stroke="none" d="M 10784,18819 L 10506,18819 10506,18264 11061,18264 11061,18819 10784,18819 Z"/>
        <path fill="rgb(255,255,255)" stroke="none" d="M 11892,18819 L 11615,18819 11615,18264 12170,18264 12170,18819 11892,18819 Z"/>
        <path fill="rgb(255,255,255)" stroke="none" d="M 13554,18819 L 13277,18819 13277,18264 13832,18264 13832,18819 13554,18819 Z"/>
        <path fill="rgb(255,255,255)" stroke="none" d="M 14109,18819 L 13831,18819 13831,18264 14386,18264 14386,18819 14109,18819 Z"/>
        <path fill="rgb(255,255,255)" stroke="none" d="M 16879,18819 L 16602,18819 16602,18264 17157,18264 17157,18819 16879,18819 Z"/>
        <path fill="rgb(255,255,255)" stroke="none" d="M 17987,18819 L 17710,18819 17710,18264 18265,18264 18265,18819 17987,18819 Z"/>
        <path fill="rgb(255,255,255)" stroke="none" d="M 19650,18819 L 19372,18819 19372,18264 19927,18264 19927,18819 19650,18819 Z"/>
        <path fill="rgb(255,255,255)" stroke="none" d="M 6351,19373 L 6073,19373 6073,18818 6628,18818 6628,19373 6351,19373 Z"/>
        <path fill="rgb(255,255,255)" stroke="none" d="M 9676,19373 L 9398,19373 9398,18818 9953,18818 9953,19373 9676,19373 Z"/>
        <path fill="rgb(255,255,255)" stroke="none" d="M 10784,19373 L 10506,19373 10506,18818 11061,18818 11061,19373 10784,19373 Z"/>
        <path fill="rgb(255,255,255)" stroke="none" d="M 11338,19373 L 11061,19373 11061,18818 11615,18818 11615,19373 11338,19373 Z"/>
        <path fill="rgb(255,255,255)" stroke="none" d="M 11892,19373 L 11615,19373 11615,18818 12170,18818 12170,19373 11892,19373 Z"/>
        <path fill="rgb(255,255,255)" stroke="none" d="M 13000,19373 L 12723,19373 12723,18818 13278,18818 13278,19373 13000,19373 Z"/>
        <path fill="rgb(255,255,255)" stroke="none" d="M 13554,19373 L 13277,19373 13277,18818 13832,18818 13832,19373 13554,19373 Z"/>
        <path fill="rgb(255,255,255)" stroke="none" d="M 14663,19373 L 14385,19373 14385,18818 14940,18818 14940,19373 14663,19373 Z"/>
        <path fill="rgb(255,255,255)" stroke="none" d="M 15217,19373 L 14939,19373 14939,18818 15494,18818 15494,19373 15217,19373 Z"/>
        <path fill="rgb(255,255,255)" stroke="none" d="M 15771,19373 L 15494,19373 15494,18818 16048,18818 16048,19373 15771,19373 Z"/>
        <path fill="rgb(255,255,255)" stroke="none" d="M 16325,19373 L 16048,19373 16048,18818 16602,18818 16602,19373 16325,19373 Z"/>
        <path fill="rgb(255,255,255)" stroke="none" d="M 16879,19373 L 16602,19373 16602,18818 17157,18818 17157,19373 16879,19373 Z"/>
        <path fill="rgb(255,255,255)" stroke="none" d="M 19650,19373 L 19372,19373 19372,18818 19927,18818 19927,19373 19650,19373 Z"/>
        <path fill="rgb(255,255,255)" stroke="none" d="M 6351,19927 L 6073,19927 6073,19372 6628,19372 6628,19927 6351,19927 Z"/>
        <path fill="rgb(255,255,255)" stroke="none" d="M 6905,19927 L 6628,19927 6628,19372 7182,19372 7182,19927 6905,19927 Z"/>
        <path fill="rgb(255,255,255)" stroke="none" d="M 7459,19927 L 7182,19927 7182,19372 7737,19372 7737,19927 7459,19927 Z"/>
        <path fill="rgb(255,255,255)" stroke="none" d="M 8013,19927 L 7736,19927 7736,19372 8291,19372 8291,19927 8013,19927 Z"/>
        <path fill="rgb(255,255,255)" stroke="none" d="M 8567,19927 L 8290,19927 8290,19372 8845,19372 8845,19927 8567,19927 Z"/>
        <path fill="rgb(255,255,255)" stroke="none" d="M 9121,19927 L 8844,19927 8844,19372 9399,19372 9399,19927 9121,19927 Z"/>
        <path fill="rgb(255,255,255)" stroke="none" d="M 9676,19927 L 9398,19927 9398,19372 9953,19372 9953,19927 9676,19927 Z"/>
        <path fill="rgb(255,255,255)" stroke="none" d="M 10784,19927 L 10506,19927 10506,19372 11061,19372 11061,19927 10784,19927 Z"/>
        <path fill="rgb(255,255,255)" stroke="none" d="M 11892,19927 L 11615,19927 11615,19372 12170,19372 12170,19927 11892,19927 Z"/>
        <path fill="rgb(255,255,255)" stroke="none" d="M 13000,19927 L 12723,19927 12723,19372 13278,19372 13278,19927 13000,19927 Z"/>
        <path fill="rgb(255,255,255)" stroke="none" d="M 14109,19927 L 13831,19927 13831,19372 14386,19372 14386,19927 14109,19927 Z"/>
        <path fill="rgb(255,255,255)" stroke="none" d="M 16325,19927 L 16048,19927 16048,19372 16602,19372 16602,19927 16325,19927 Z"/>
        <path fill="rgb(255,255,255)" stroke="none" d="M 19096,19927 L 18818,19927 18818,19372 19373,19372 19373,19927 19096,19927 Z"/>
        <path fill="rgb(255,255,255)" stroke="none" d="M 19650,19927 L 19372,19927 19372,19372 19927,19372 19927,19927 19650,19927 Z"/>
       </g>
      </g>
      <g class="com.sun.star.drawing.CustomShape">
       <g id="id5">
        <rect class="BoundingBox" stroke="none" fill="none" x="4500" y="4500" width="801" height="5001"/>
        <path fill="rgb(180,220,0)" stroke="none" d="M 4900,9500 L 4500,9500 4500,4500 5300,4500 5300,9500 4900,9500 Z"/>
       </g>
      </g>
      <g class="com.sun.star.drawing.CustomShape">
       <g id="id6">
        <rect class="BoundingBox" stroke="none" fill="none" x="4500" y="4500" width="5001" height="801"/>
        <path fill="rgb(180,220,0)" stroke="none" d="M 7000,5300 L 4500,5300 4500,4500 9500,4500 9500,5300 7000,5300 Z"/>
       </g>
      </g>
      <g class="com.sun.star.drawing.CustomShape">
       <g id="id7">
        <rect class="BoundingBox" stroke="none" fill="none" x="4000" y="4000" width="801" height="5001"/>
        <path fill="rgb(255,255,255)" stroke="none" d="M 4400,9000 L 4000,9000 4000,4000 4800,4000 4800,9000 4400,9000 Z"/>
       </g>
      </g>
      <g class="com.sun.star.drawing.CustomShape">
       <g id="id8">
        <rect class="BoundingBox" stroke="none" fill="none" x="4000" y="4000" width="5001" height="801"/>
        <path fill="rgb(255,255,255)" stroke="none" d="M 6500,4800 L 4000,4800 4000,4000 9000,4000 9000,4800 6500,4800 Z"/>
       </g>
      </g>
      <g class="com.sun.star.drawing.CustomShape">
       <g id="id9">
        <rect class="BoundingBox" stroke="none" fill="none" x="21700" y="4500" width="801" height="5001"/>
        <path fill="rgb(180,220,0)" stroke="none" d="M 22100,9500 L 21700,9500 21700,4500 22500,4500 22500,9500 22100,9500 Z"/>
       </g>
      </g>
      <g class="com.sun.star.drawing.CustomShape">
       <g id="id10">
        <rect class="BoundingBox" stroke="none" fill="none" x="17500" y="4500" width="5001" height="801"/>
        <path fill="rgb(180,220,0)" stroke="none" d="M 20000,5300 L 17500,5300 17500,4500 22500,4500 22500,5300 20000,5300 Z"/>
       </g>
      </g>
      <g class="com.sun.star.drawing.CustomShape">
       <g id="id11">
        <rect class="BoundingBox" stroke="none" fill="none" x="21200" y="4000" width="801" height="5001"/>
        <path fill="rgb(255,255,255)" stroke="none" d="M 21600,9000 L 21200,9000 21200,4000 22000,4000 22000,9000 21600,9000 Z"/>
       </g>
      </g>
      <g class="com.sun.star.drawing.CustomShape">
       <g id="id12">
        <rect class="BoundingBox" stroke="none" fill="none" x="17000" y="4000" width="5001" height="801"/>
        <path fill="rgb(255,255,255)" stroke="none" d="M 19500,4800 L 17000,4800 17000,4000 22000,4000 22000,4800 19500,4800 Z"/>
       </g>
      </g>
      <g class="com.sun.star.drawing.CustomShape">
       <g id="id13">
        <rect class="BoundingBox" stroke="none" fill="none" x="4500" y="17500" width="801" height="5001"/>
        <path fill="rgb(180,220,0)" stroke="none" d="M 4900,22500 L 4500,22500 4500,17500 5300,17500 5300,22500 4900,22500 Z"/>
       </g>
      </g>
      <g class="com.sun.star.drawing.CustomShape">
       <g id="id14">
        <rect class="BoundingBox" stroke="none" fill="none" x="4500" y="21700" width="5001" height="801"/>
        <path fill="rgb(180,220,0)" stroke="none" d="M 7000,22500 L 4500,22500 4500,21700 9500,21700 9500,22500 7000,22500 Z"/>
       </g>
      </g>
      <g class="com.sun.star.drawing.CustomShape">
       <g id="id15">
        <rect class="BoundingBox" stroke="none" fill="none" x="4000" y="17000" width="801" height="5001"/>
        <path fill="rgb(255,255,255)" stroke="none" d="M 4400,22000 L 4000,22000 4000,17000 4800,17000 4800,22000 4400,22000 Z"/>
       </g>
      </g>
      <g class="com.sun.star.drawing.CustomShape">
       <g id="id16">
        <rect class="BoundingBox" stroke="none" fill="none" x="4000" y="21200" width="5001" height="801"/>
        <path fill="rgb(255,255,255)" stroke="none" d="M 6500,22000 L 4000,22000 4000,21200 9000,21200 9000,22000 6500,22000 Z"/>
       </g>
      </g>
      <g class="com.sun.star.drawing.CustomShape">
       <g id="id17">
        <rect class="BoundingBox" stroke="none" fill="none" x="17500" y="21700" width="5001" height="801"/>
        <path fill="rgb(180,220,0)" stroke="none" d="M 20000,22500 L 17500,22500 17500,21700 22500,21700 22500,22500 20000,22500 Z"/>
       </g>
      </g>
      <g class="com.sun.star.drawing.CustomShape">
       <g id="id18">
        <rect class="BoundingBox" stroke="none" fill="none" x="21700" y="17500" width="801" height="5001"/>
        <path fill="rgb(180,220,0)" stroke="none" d="M 22100,22500 L 21700,22500 21700,17500 22500,17500 22500,22500 22100,22500 Z"/>
       </g>
      </g>
      <g class="com.sun.star.drawing.CustomShape">
       <g id="id19">
        <rect class="BoundingBox" stroke="none" fill="none" x="17000" y="21200" width="5001" height="801"/>
        <path fill="rgb(255,255,255)" stroke="none" d="M 19500,22000 L 17000,22000 17000,21200 22000,21200 22000,22000 19500,22000 Z"/>
       </g>
      </g>
      <g class="com.sun.star.drawing.CustomShape">
       <g id="id20">
        <rect class="BoundingBox" stroke="none" fill="none" x="21200" y="17000" width="801" height="5001"/>
        <path fill="rgb(255,255,255)" stroke="none" d="M 21600,22000 L 21200,22000 21200,17000 22000,17000 22000,22000 21600,22000 Z"/>
       </g>
      </g>
     </g>
    </g>
   </g>
  </g>
 </g>
</svg>