<?xml version="1.0" encoding="UTF-8"?>
<!DOCTYPE svg PUBLIC "-//W3C//DTD SVG 1.1//EN" "http://www.w3.org/Graphics/SVG/1.1/DTD/svg11.dtd">
<svg version="1.2" width="200mm" height="200mm" viewBox="0 0 20000 20000" preserveAspectRatio="xMidYMid" fill-rule="evenodd" stroke-width="28.222" stroke-linejoin="round" xmlns="http://www.w3.org/2000/svg" xmlns:ooo="http://xml.openoffice.org/svg/export" xmlns:xlink="http://www.w3.org/1999/xlink" xmlns:presentation="http://sun.com/xmlns/staroffice/presentation" xmlns:smil="http://www.w3.org/2001/SMIL20/" xmlns:anim="urn:oasis:names:tc:opendocument:xmlns:animation:1.0" xml:space="preserve">
 <defs class="ClipPathGroup">
  <clipPath id="presentation_clip_path" clipPathUnits="userSpaceOnUse">
   <rect x="0" y="0" width="20000" height="20000"/>
  </clipPath>
  <clipPath id="presentation_clip_path_shrink" clipPathUnits="userSpaceOnUse">
   <rect x="20" y="20" width="19960" height="19960"/>
  </clipPath>
 </defs>
 <defs class="TextShapeIndex">
  <g ooo:slide="id1" ooo:id-list="id3 id4 id5 id6 id7 id8 id9 id10 id11 id12 id13 id14 id15 id16"/>
 </defs>
 <defs class="EmbeddedBulletChars">
  <g id="bullet-char-template-57356" transform="scale(0.00048828125,-0.00048828125)">
   <path d="M 580,1141 L 1163,571 580,0 -4,571 580,1141 Z"/>
  </g>
  <g id="bullet-char-template-57354" transform="scale(0.00048828125,-0.00048828125)">
   <path d="M 8,1128 L 1137,1128 1137,0 8,0 8,1128 Z"/>
  </g>
  <g id="bullet-char-template-10146" transform="scale(0.00048828125,-0.00048828125)">
   <path d="M 174,0 L 602,739 174,1481 1456,739 174,0 Z M 1358,739 L 309,1346 659,739 1358,739 Z"/>
  </g>
  <g id="bullet-char-template-10132" transform="scale(0.00048828125,-0.00048828125)">
   <path d="M 2015,739 L 1276,0 717,0 1260,543 174,543 174,936 1260,936 717,1481 1274,1481 2015,739 Z"/>
  </g>
  <g id="bullet-char-template-10007" transform="scale(0.00048828125,-0.00048828125)">
   <path d="M 0,-2 C -7,14 -16,27 -25,37 L 356,567 C 262,823 215,952 215,954 215,979 228,992 255,992 264,992 276,990 289,987 310,991 331,999 354,1012 L 381,999 492,748 772,1049 836,1024 860,1049 C 881,1039 901,1025 922,1006 886,937 835,863 770,784 769,783 710,716 594,584 L 774,223 C 774,196 753,168 711,139 L 727,119 C 717,90 699,76 672,76 641,76 570,178 457,381 L 164,-76 C 142,-110 111,-127 72,-127 30,-127 9,-110 8,-76 1,-67 -2,-52 -2,-32 -2,-23 -1,-13 0,-2 Z"/>
  </g>
  <g id="bullet-char-template-10004" transform="scale(0.00048828125,-0.00048828125)">
   <path d="M 285,-33 C 182,-33 111,30 74,156 52,228 41,333 41,471 41,549 55,616 82,672 116,743 169,778 240,778 293,778 328,747 346,684 L 369,508 C 377,444 397,411 428,410 L 1163,1116 C 1174,1127 1196,1133 1229,1133 1271,1133 1292,1118 1292,1087 L 1292,965 C 1292,929 1282,901 1262,881 L 442,47 C 390,-6 338,-33 285,-33 Z"/>
  </g>
  <g id="bullet-char-template-9679" transform="scale(0.00048828125,-0.00048828125)">
   <path d="M 813,0 C 632,0 489,54 383,161 276,268 223,411 223,592 223,773 276,916 383,1023 489,1130 632,1184 813,1184 992,1184 1136,1130 1245,1023 1353,916 1407,772 1407,592 1407,412 1353,268 1245,161 1136,54 992,0 813,0 Z"/>
  </g>
  <g id="bullet-char-template-8226" transform="scale(0.00048828125,-0.00048828125)">
   <path d="M 346,457 C 273,457 209,483 155,535 101,586 74,649 74,723 74,796 101,859 155,911 209,963 273,989 346,989 419,989 480,963 531,910 582,859 608,796 608,723 608,648 583,586 532,535 482,483 420,457 346,457 Z"/>
  </g>
  <g id="bullet-char-template-8211" transform="scale(0.00048828125,-0.00048828125)">
   <path d="M -4,459 L 1135,459 1135,606 -4,606 -4,459 Z"/>
  </g>
  <g id="bullet-char-template-61548" transform="scale(0.00048828125,-0.00048828125)">
   <path d="M 173,740 C 173,903 231,1043 346,1159 462,1274 601,1332 765,1332 928,1332 1067,1274 1183,1159 1299,1043 1357,903 1357,740 1357,577 1299,437 1183,322 1067,206 928,148 765,148 601,148 462,206 346,322 231,437 173,577 173,740 Z"/>
  </g>
 </defs>
 <defs class="TextEmbeddedBitmaps"/>
 <g>
  <g id="id2" class="Master_Slide">
   <g id="bg-id2" class="Background"/>
   <g id="bo-id2" class="BackgroundObjects"/>
  </g>
 </g>
 <g class="SlideGroup">
  <g>
   <g id="container-id1">
    <g id="id1" class="Slide" clip-path="url(#presentation_clip_path)">
     <g class="Page">
      <g class="com.sun.star.drawing.CustomShape">
       <g id="id3">
        <rect class="BoundingBox" stroke="none" fill="none" x="1" y="1" width="20002" height="20002"/>
        <path fill="rgb(200,240,0)" stroke="none" d="M 6923,1 C 3462,1 1,3462 1,6923 L 1,13079 C 1,16540 3462,20002 6923,20002 L 13079,20002 C 16540,20002 20002,16540 20002,13079 L 20002,6923 C 20002,3462 16540,1 13079,1 L 6923,1 Z"/>
       </g>
      </g>
      <g class="com.sun.star.drawing.CustomShape">
       <g id="id4">
        <rect class="BoundingBox" stroke="none" fill="none" x="700" y="9500" width="5001" height="5002"/>
        <path fill="rgb(180,220,0)" stroke="none" d="M 3200,9500 C 4617,9500 5700,10583 5700,12000 5700,13417 4617,14500 3200,14500 1783,14500 700,13417 700,12000 700,10583 1783,9500 3200,9500 Z"/>
       </g>
      </g>
      <g class="com.sun.star.drawing.CustomShape">
       <g id="id5">
        <rect class="BoundingBox" stroke="none" fill="none" x="11000" y="4800" width="5001" height="5001"/>
        <path fill="rgb(180,220,0)" stroke="none" d="M 13500,4800 C 14917,4800 16000,5883 16000,7300 16000,8717 14917,9800 13500,9800 12083,9800 11000,8717 11000,7300 11000,5883 12083,4800 13500,4800 Z"/>
       </g>
      </g>
      <g class="com.sun.star.drawing.CustomShape">
       <g id="id6">
        <rect class="BoundingBox" stroke="none" fill="none" x="14300" y="9500" width="5001" height="5002"/>
        <path fill="rgb(180,220,0)" stroke="none" d="M 16800,9500 C 18217,9500 19300,10583 19300,12000 19300,13417 18217,14500 16800,14500 15383,14500 14300,13417 14300,12000 14300,10583 15383,9500 16800,9500 Z"/>
       </g>
      </g>
      <g class="com.sun.star.drawing.CustomShape">
       <g id="id7">
        <rect class="BoundingBox" stroke="none" fill="none" x="8600" y="4100" width="4001" height="4001"/>
        <path fill="rgb(180,220,0)" stroke="none" d="M 10599,4100 C 11733,4100 12599,4965 12599,6099 12599,7233 11733,8099 10599,8099 9465,8099 8600,7233 8600,6099 8600,4965 9465,4100 10599,4100 Z"/>
       </g>
      </g>
      <g class="com.sun.star.drawing.CustomShape">
       <g id="id8">
        <rect class="BoundingBox" stroke="none" fill="none" x="3700" y="5200" width="4001" height="4001"/>
        <path fill="rgb(180,220,0)" stroke="none" d="M 5699,5200 C 6833,5200 7699,6065 7699,7199 7699,8333 6833,9199 5699,9199 4565,9199 3700,8333 3700,7199 3700,6065 4565,5200 5699,5200 Z"/>
       </g>
      </g>
      <g class="com.sun.star.drawing.CustomShape">
       <g id="id9">
        <rect class="BoundingBox" stroke="none" fill="none" x="6500" y="4599" width="3001" height="3002"/>
        <path fill="rgb(180,220,0)" stroke="none" d="M 8000,4600 C 8850,4600 9500,5250 9500,6100 9500,6950 8850,7600 8000,7600 7150,7600 6500,6950 6500,6100 6500,5250 7150,4600 8000,4600 Z"/>
       </g>
      </g>
      <g class="com.sun.star.drawing.CustomShape">
       <g id="id10">
        <rect class="BoundingBox" stroke="none" fill="none" x="2100" y="7200" width="3001" height="3001"/>
        <path fill="rgb(180,220,0)" stroke="none" d="M 3600,7200 C 4450,7200 5100,7850 5100,8700 5100,9550 4450,10200 3600,10200 2750,10200 2100,9550 2100,8700 2100,7850 2750,7200 3600,7200 Z"/>
       </g>
      </g>
      <g class="com.sun.star.drawing.CustomShape">
       <g id="id11">
        <rect class="BoundingBox" stroke="none" fill="none" x="14699" y="6999" width="3002" height="3002"/>
        <path fill="rgb(180,220,0)" stroke="none" d="M 16200,7000 C 17050,7000 17700,7650 17700,8500 17700,9350 17050,10000 16200,10000 15350,10000 14700,9350 14700,8500 14700,7650 15350,7000 16200,7000 Z"/>
       </g>
      </g>
      <g class="com.sun.star.drawing.CustomShape">
       <g id="id12">
        <rect class="BoundingBox" stroke="none" fill="none" x="3200" y="7300" width="13961" height="7201"/>
        <path fill="rgb(180,220,0)" stroke="none" d="M 10180,14500 L 3200,14500 3200,7300 17160,7300 17160,14500 10180,14500 Z"/>
       </g>
      </g>
      <g class="com.sun.star.drawing.ClosedBezierShape">
       <g id="id13">
        <rect class="BoundingBox" stroke="none" fill="none" x="3521" y="6811" width="13025" height="6703"/>
        <path fill="rgb(255,255,255)" stroke="none" d="M 10015,11143 C 9050,12722 7954,13512 6725,13512 5778,13512 5007,13206 4412,12594 3818,11983 3521,11183 3521,10196 3521,9266 3831,8469 4451,7806 5071,7143 5829,6811 6725,6811 8080,6811 9188,7595 10049,9162 10991,7595 12082,6811 13322,6811 14276,6811 15051,7117 15648,7728 16245,8340 16544,9139 16544,10127 16544,11051 16233,11847 15613,12513 14993,13179 14230,13512 13322,13512 12025,13512 10922,12722 10015,11143 Z M 10575,10161 C 11327,11654 12243,12401 13322,12401 13948,12401 14449,12193 14825,11776 15201,11360 15389,10810 15389,10127 15389,9484 15194,8950 14804,8525 14413,8100 13920,7888 13322,7888 12329,7888 11413,8646 10575,10161 Z M 9481,10144 C 8723,8640 7804,7888 6725,7888 6093,7888 5590,8103 5213,8534 4837,8964 4649,9518 4649,10196 4649,10827 4843,11353 5231,11772 5618,12191 6116,12401 6725,12401 7736,12401 8654,11649 9481,10144 Z"/>
       </g>
      </g>
      <g class="com.sun.star.drawing.CustomShape">
       <g id="id14">
        <rect class="BoundingBox" stroke="none" fill="none" x="9679" y="8162" width="1514" height="2071"/>
        <path fill="rgb(180,220,0)" stroke="none" d="M 10147,9348 L 9680,8465 10257,8162 11192,9928 10614,10231 10147,9348 Z"/>
       </g>
      </g>
      <g class="com.sun.star.drawing.CustomShape">
       <g id="id15">
        <rect class="BoundingBox" stroke="none" fill="none" x="7806" y="10100" width="2585" height="2635"/>
        <path fill="rgb(180,220,0)" stroke="none" d="M 8274,11851 L 7807,10968 9455,10100 10390,11866 8741,12734 8274,11851 Z"/>
       </g>
      </g>
      <g class="com.sun.star.drawing.CustomShape">
       <g id="id16">
        <rect class="BoundingBox" stroke="none" fill="none" x="7639" y="11192" width="2088" height="2002"/>
        <path fill="rgb(255,255,255)" stroke="none" d="M 9725,11192 L 9054,13193 7639,11507 9725,11192 Z"/>
       </g>
      </g>
     </g>
    </g>
   </g>
  </g>
 </g>
</svg>