<?xml version="1.0" encoding="UTF-8"?>
<!DOCTYPE svg PUBLIC "-//W3C//DTD SVG 1.1//EN" "http://www.w3.org/Graphics/SVG/1.1/DTD/svg11.dtd">
<svg version="1.2" width="200.3mm" height="200.3mm" viewBox="0 0 20030 20030" preserveAspectRatio="xMidYMid" fill-rule="evenodd" stroke-width="28.222" stroke-linejoin="round" xmlns="http://www.w3.org/2000/svg" xmlns:ooo="http://xml.openoffice.org/svg/export" xmlns:xlink="http://www.w3.org/1999/xlink" xmlns:presentation="http://sun.com/xmlns/staroffice/presentation" xmlns:smil="http://www.w3.org/2001/SMIL20/" xmlns:anim="urn:oasis:names:tc:opendocument:xmlns:animation:1.0" xml:space="preserve">
 <defs class="ClipPathGroup">
  <clipPath id="presentation_clip_path" clipPathUnits="userSpaceOnUse">
   <rect x="0" y="0" width="20030" height="20030"/>
  </clipPath>
  <clipPath id="presentation_clip_path_shrink" clipPathUnits="userSpaceOnUse">
   <rect x="20" y="20" width="19990" height="19990"/>
  </clipPath>
 </defs>
 <defs class="TextShapeIndex">
  <g ooo:slide="id1" ooo:id-list="id3 id4"/>
 </defs>
 <defs class="EmbeddedBulletChars">
  <g id="bullet-char-template-57356" transform="scale(0.00048828125,-0.00048828125)">
   <path d="M 580,1141 L 1163,571 580,0 -4,571 580,1141 Z"/>
  </g>
  <g id="bullet-char-template-57354" transform="scale(0.00048828125,-0.00048828125)">
   <path d="M 8,1128 L 1137,1128 1137,0 8,0 8,1128 Z"/>
  </g>
  <g id="bullet-char-template-10146" transform="scale(0.00048828125,-0.00048828125)">
   <path d="M 174,0 L 602,739 174,1481 1456,739 174,0 Z M 1358,739 L 309,1346 659,739 1358,739 Z"/>
  </g>
  <g id="bullet-char-template-10132" transform="scale(0.00048828125,-0.00048828125)">
   <path d="M 2015,739 L 1276,0 717,0 1260,543 174,543 174,936 1260,936 717,1481 1274,1481 2015,739 Z"/>
  </g>
  <g id="bullet-char-template-10007" transform="scale(0.00048828125,-0.00048828125)">
   <path d="M 0,-2 C -7,14 -16,27 -25,37 L 356,567 C 262,823 215,952 215,954 215,979 228,992 255,992 264,992 276,990 289,987 310,991 331,999 354,1012 L 381,999 492,748 772,1049 836,1024 860,1049 C 881,1039 901,1025 922,1006 886,937 835,863 770,784 769,783 710,716 594,584 L 774,223 C 774,196 753,168 711,139 L 727,119 C 717,90 699,76 672,76 641,76 570,178 457,381 L 164,-76 C 142,-110 111,-127 72,-127 30,-127 9,-110 8,-76 1,-67 -2,-52 -2,-32 -2,-23 -1,-13 0,-2 Z"/>
  </g>
  <g id="bullet-char-template-10004" transform="scale(0.00048828125,-0.00048828125)">
   <path d="M 285,-33 C 182,-33 111,30 74,156 52,228 41,333 41,471 41,549 55,616 82,672 116,743 169,778 240,778 293,778 328,747 346,684 L 369,508 C 377,444 397,411 428,410 L 1163,1116 C 1174,1127 1196,1133 1229,1133 1271,1133 1292,1118 1292,1087 L 1292,965 C 1292,929 1282,901 1262,881 L 442,47 C 390,-6 338,-33 285,-33 Z"/>
  </g>
  <g id="bullet-char-template-9679" transform="scale(0.00048828125,-0.00048828125)">
   <path d="M 813,0 C 632,0 489,54 383,161 276,268 223,411 223,592 223,773 276,916 383,1023 489,1130 632,1184 813,1184 992,1184 1136,1130 1245,1023 1353,916 1407,772 1407,592 1407,412 1353,268 1245,161 1136,54 992,0 813,0 Z"/>
  </g>
  <g id="bullet-char-template-8226" transform="scale(0.00048828125,-0.00048828125)">
   <path d="M 346,457 C 273,457 209,483 155,535 101,586 74,649 74,723 74,796 101,859 155,911 209,963 273,989 346,989 419,989 480,963 531,910 582,859 608,796 608,723 608,648 583,586 532,535 482,483 420,457 346,457 Z"/>
  </g>
  <g id="bullet-char-template-8211" transform="scale(0.00048828125,-0.00048828125)">
   <path d="M -4,459 L 1135,459 1135,606 -4,606 -4,459 Z"/>
  </g>
  <g id="bullet-char-template-61548" transform="scale(0.00048828125,-0.00048828125)">
   <path d="M 173,740 C 173,903 231,1043 346,1159 462,1274 601,1332 765,1332 928,1332 1067,1274 1183,1159 1299,1043 1357,903 1357,740 1357,577 1299,437 1183,322 1067,206 928,148 765,148 601,148 462,206 346,322 231,437 173,577 173,740 Z"/>
  </g>
 </defs>
 <defs class="TextEmbeddedBitmaps"/>
 <g>
  <g id="id2" class="Master_Slide">
   <g id="bg-id2" class="Background"/>
   <g id="bo-id2" class="BackgroundObjects"/>
  </g>
 </g>
 <g class="SlideGroup">
  <g>
   <g id="container-id1">
    <g id="id1" class="Slide" clip-path="url(#presentation_clip_path)">
     <g class="Page">
      <g class="com.sun.star.drawing.CustomShape">
       <g id="id3">
        <rect class="BoundingBox" stroke="none" fill="none" x="0" y="0" width="20031" height="20031"/>
        <path fill="rgb(200,240,0)" stroke="none" d="M 10015,20030 L 0,20030 0,0 20030,0 20030,20030 10015,20030 Z"/>
       </g>
      </g>
      <g class="Graphic">
       <g id="id4">
        <rect class="BoundingBox" stroke="none" fill="none" x="0" y="0" width="20026" height="20026"/>
        <path fill="rgb(180,220,0)" stroke="none" d="M 13086,11726 C 12488,12071 12059,12500 11714,13098 11368,13696 11211,14283 11211,14973 11211,15663 11368,16250 11714,16848 12059,17446 12488,17875 13086,18221 13684,18566 14271,18723 14961,18723 15651,18723 16238,18566 16836,18221 17434,17875 17863,17446 18208,16848 18553,16250 18711,15663 18711,14973 18711,14283 18553,13696 18208,13098 17863,12500 17434,12071 16836,11726 16238,11381 15651,11223 14961,11223 14271,11223 13684,11381 13086,11726 Z M 14961,13366 C 15257,13366 15508,13434 15764,13581 16021,13729 16205,13913 16353,14170 16501,14426 16568,14677 16568,14973 L 16568,14973 16568,14973 C 16568,15269 16501,15520 16353,15777 16205,16033 16021,16217 15764,16365 15508,16513 15257,16580 14961,16580 L 14961,16580 14961,16580 C 14665,16580 14414,16513 14157,16365 13901,16217 13717,16033 13569,15777 13421,15520 13354,15269 13354,14973 L 13354,14973 13354,14973 C 13354,14677 13421,14426 13569,14170 13717,13913 13901,13729 14157,13581 14414,13434 14665,13366 14961,13366 L 14961,13366 14961,13366 Z"/>
        <path fill="rgb(180,220,0)" stroke="none" d="M 13292,12572 C 13321,12568 13345,12570 13372,12579 13403,12589 13426,12604 13447,12628 13469,12652 13481,12677 13488,12709 13494,12737 13493,12761 13486,12789 L 12587,16141 C 12580,16169 12568,16191 12549,16212 12528,16236 12504,16251 12474,16261 12444,16271 12416,16273 12384,16266 12356,16261 12334,16250 12312,16232 L 10165,14529 C 10159,14524 10153,14520 10147,14514 10092,14465 10056,14410 10033,14340 10010,14269 10006,14204 10021,14132 10023,14124 10024,14117 10026,14109 L 10252,13268 C 10254,13260 10256,13254 10258,13246 10281,13175 10317,13121 10373,13072 10428,13022 10486,12993 10559,12978 10567,12976 10574,12975 10582,12974 L 13292,12572 Z"/>
        <path fill="rgb(180,220,0)" stroke="none" d="M 16172,12312 C 16189,12335 16200,12357 16206,12385 16212,12416 16211,12444 16201,12475 16191,12505 16175,12529 16151,12550 16130,12569 16108,12581 16081,12588 L 12728,13486 C 12701,13494 12676,13494 12648,13489 12617,13482 12592,13469 12568,13448 12544,13427 12528,13403 12518,13373 12509,13346 12507,13321 12511,13293 L 12913,10582 C 12914,10574 12916,10568 12917,10560 12932,10487 12962,10429 13011,10373 13060,10318 13115,10282 13185,10259 13193,10256 13200,10254 13207,10252 L 14049,10027 C 14056,10025 14063,10023 14071,10022 14144,10006 14209,10010 14279,10033 14350,10057 14404,10093 14454,10148 14459,10154 14463,10159 14469,10166 L 16172,12312 Z"/>
        <path fill="rgb(180,220,0)" stroke="none" d="M 17836,14676 C 17826,14702 17812,14723 17790,14742 17767,14763 17741,14776 17710,14782 17679,14789 17651,14787 17620,14777 17593,14768 17572,14755 17552,14735 L 15098,12281 C 15078,12261 15065,12239 15056,12212 15046,12182 15044,12154 15051,12123 15057,12091 15070,12066 15091,12042 15110,12021 15130,12007 15157,11996 L 17705,10989 C 17713,10986 17719,10984 17727,10981 17797,10958 17862,10954 17935,10969 18008,10984 18066,11014 18121,11063 18128,11068 18133,11073 18138,11079 L 18754,11695 C 18760,11700 18764,11705 18770,11711 18819,11767 18849,11825 18864,11898 18879,11970 18875,12035 18852,12106 18849,12114 18847,12120 18844,12128 L 17836,14676 Z"/>
        <path fill="rgb(180,220,0)" stroke="none" d="M 16622,17299 C 16594,17304 16569,17301 16542,17292 16511,17282 16488,17267 16467,17243 16445,17219 16433,17194 16426,17163 16420,17135 16421,17110 16428,17083 L 17327,13730 C 17334,13703 17346,13681 17365,13660 17386,13636 17410,13620 17440,13610 17470,13600 17498,13599 17530,13605 17558,13611 17580,13621 17602,13639 L 19749,15342 C 19755,15347 19761,15352 19767,15357 19822,15407 19858,15461 19881,15532 19905,15602 19908,15667 19893,15740 19892,15748 19890,15754 19888,15762 L 19662,16603 C 19660,16611 19658,16618 19656,16626 19633,16696 19597,16751 19541,16800 19486,16849 19428,16879 19355,16894 19347,16895 19340,16897 19332,16898 L 16622,17299 Z"/>
        <path fill="rgb(180,220,0)" stroke="none" d="M 13742,17559 C 13725,17537 13714,17514 13708,17486 13702,17455 13704,17427 13714,17397 13724,17366 13739,17343 13763,17322 13784,17303 13806,17291 13834,17283 L 17186,16385 C 17213,16378 17238,16377 17266,16383 17297,16389 17323,16402 17346,16423 17370,16445 17386,16468 17396,16498 17405,16526 17407,16550 17403,16578 L 17001,19289 C 17000,19297 16999,19304 16997,19312 16982,19384 16953,19443 16903,19498 16854,19553 16799,19589 16729,19613 16721,19615 16714,19617 16707,19619 L 15866,19845 C 15858,19847 15851,19848 15843,19850 15770,19865 15705,19861 15635,19838 15564,19815 15510,19779 15460,19723 15455,19717 15451,19712 15446,19706 L 13742,17559 Z"/>
        <path fill="rgb(180,220,0)" stroke="none" d="M 12078,15196 C 12088,15169 12102,15149 12124,15130 12148,15108 12173,15096 12204,15089 12235,15083 12263,15084 12294,15094 12321,15103 12342,15116 12362,15137 L 14816,17591 C 14836,17611 14849,17632 14858,17659 14868,17689 14870,17717 14863,17749 14857,17780 14844,17805 14823,17829 14804,17850 14784,17865 14757,17875 L 12209,18882 C 12201,18885 12195,18888 12187,18890 12117,18914 12052,18917 11979,18902 11906,18887 11848,18858 11793,18809 11787,18803 11782,18798 11776,18793 L 11160,18177 C 11154,18171 11150,18166 11144,18160 11095,18105 11066,18046 11050,17974 11035,17901 11039,17836 11062,17766 11065,17758 11067,17751 11070,17744 L 12078,15196 Z"/>
        <path fill="rgb(180,220,0)" stroke="none" d="M 1609,6928 L 4062,5866 C 4087,5854 4111,5850 4139,5852 4170,5854 4196,5862 4222,5879 4248,5896 4266,5917 4280,5945 4293,5970 4298,5993 4298,6021 L 4298,9407 C 4298,9435 4293,9458 4280,9483 4266,9511 4248,9531 4222,9548 4196,9566 4170,9574 4139,9576 4111,9578 4087,9573 4062,9562 L 1609,8499 C 1601,8496 1595,8493 1588,8490 1524,8457 1476,8415 1436,8354 1397,8294 1377,8233 1373,8161 1372,8153 1372,8147 1372,8139 L 1372,7289 C 1372,7281 1372,7275 1373,7267 1377,7194 1397,7134 1436,7073 1476,7013 1524,6971 1588,6938 1595,6934 1601,6932 1609,6928 Z"/>
        <path fill="rgb(180,220,0)" stroke="none" d="M 7713,2836 C 6815,2836 6052,3041 5274,3490 4496,3939 3938,4497 3489,5275 3040,6053 2835,6816 2835,7714 L 2835,7714 2835,7714 C 2835,8612 3040,9375 3489,10153 3938,10930 4496,11489 5274,11938 6052,12387 6815,12591 7713,12591 L 7713,12591 7713,12591 C 8611,12591 9374,12387 10151,11938 10929,11489 11488,10930 11937,10153 12386,9375 12590,8612 12590,7714 L 12590,7714 12590,7714 C 12590,6816 12386,6053 11937,5275 11488,4497 10929,3939 10151,3490 9374,3041 8611,2836 7713,2836 L 7713,2836 7713,2836 Z M 7713,5275 C 8162,5275 8543,5377 8932,5602 9321,5826 9600,6106 9825,6495 10049,6883 10151,7265 10151,7714 L 10151,7714 10151,7714 C 10151,8163 10049,8544 9825,8933 9600,9322 9321,9601 8932,9826 8543,10050 8162,10153 7713,10153 L 7713,10153 7713,10153 C 7264,10153 6882,10050 6493,9826 6104,9601 5825,9322 5601,8933 5376,8544 5274,8163 5274,7714 L 5274,7714 5274,7714 C 5274,7265 5376,6883 5601,6495 5825,6106 6104,5826 6493,5602 6882,5377 7264,5275 7713,5275 L 7713,5275 7713,5275 Z"/>
        <path fill="rgb(180,220,0)" stroke="none" d="M 6438,3825 C 6464,3835 6484,3849 6502,3870 6523,3893 6535,3917 6542,3948 6548,3978 6547,4006 6537,4036 6528,4062 6515,4083 6496,4102 L 4102,6496 C 4082,6516 4061,6529 4035,6537 4005,6547 3978,6549 3947,6542 3917,6536 3892,6524 3869,6503 3848,6484 3834,6465 3824,6439 L 2841,3953 C 2838,3945 2836,3939 2834,3932 2811,3863 2807,3799 2822,3728 2837,3658 2865,3601 2913,3547 2919,3541 2923,3536 2929,3530 L 3530,2930 C 3535,2924 3540,2919 3546,2914 3600,2866 3657,2837 3728,2823 3799,2808 3862,2812 3931,2834 3938,2837 3945,2839 3952,2842 L 6438,3825 Z"/>
        <path fill="rgb(180,220,0)" stroke="none" d="M 9562,4062 C 9573,4088 9577,4112 9575,4139 9574,4170 9565,4196 9548,4223 9531,4249 9510,4267 9482,4281 9458,4293 9434,4299 9406,4299 L 6020,4299 C 5993,4299 5969,4293 5944,4281 5916,4267 5896,4249 5879,4223 5862,4196 5853,4170 5851,4139 5850,4112 5854,4088 5865,4062 L 6928,1609 C 6931,1602 6934,1596 6937,1589 6970,1524 7012,1477 7073,1437 7133,1397 7194,1377 7266,1373 7274,1373 7281,1373 7289,1373 L 8138,1373 C 8146,1373 8153,1373 8161,1373 8233,1377 8293,1397 8354,1437 8414,1477 8457,1524 8489,1589 8493,1596 8496,1602 8499,1609 L 9562,4062 Z"/>
        <path fill="rgb(180,220,0)" stroke="none" d="M 11602,6439 C 11592,6465 11578,6484 11558,6503 11534,6524 11510,6536 11479,6542 11449,6549 11421,6547 11392,6537 11365,6529 11345,6516 11325,6496 L 8931,4102 C 8911,4083 8899,4062 8890,4036 8880,4006 8878,3978 8885,3948 8891,3917 8903,3893 8924,3870 8943,3849 8963,3835 8988,3825 L 11474,2842 C 11482,2839 11488,2837 11496,2834 11564,2812 11628,2808 11699,2823 11770,2837 11827,2866 11881,2914 11887,2919 11891,2924 11897,2930 L 12498,3530 C 12503,3536 12508,3541 12513,3547 12561,3601 12590,3658 12605,3728 12619,3799 12616,3863 12593,3932 12591,3939 12588,3945 12585,3953 L 11602,6439 Z"/>
        <path fill="rgb(180,220,0)" stroke="none" d="M 11365,9562 C 11340,9573 11316,9578 11288,9576 11257,9574 11231,9566 11205,9548 11179,9531 11160,9511 11146,9483 11134,9458 11128,9435 11128,9407 L 11128,6021 C 11128,5993 11134,5970 11146,5945 11160,5917 11179,5896 11205,5879 11231,5862 11257,5854 11288,5852 11316,5850 11340,5854 11365,5866 L 13818,6928 C 13825,6932 13831,6934 13838,6938 13903,6971 13950,7013 13990,7073 14030,7134 14050,7194 14054,7267 14055,7275 14055,7281 14055,7289 L 14055,8139 C 14055,8147 14055,8153 14054,8161 14050,8233 14030,8294 13990,8354 13950,8415 13903,8457 13838,8490 13831,8493 13825,8496 13818,8499 L 11365,9562 Z"/>
        <path fill="rgb(180,220,0)" stroke="none" d="M 11474,12586 L 8988,11603 C 8963,11593 8943,11579 8924,11558 8903,11535 8891,11510 8885,11480 8878,11449 8880,11422 8890,11392 8899,11366 8911,11345 8931,11326 L 11325,8932 C 11345,8912 11365,8899 11392,8890 11421,8881 11449,8879 11479,8885 11510,8892 11534,8904 11558,8925 11578,8943 11592,8963 11602,8989 L 12585,11475 C 12588,11482 12591,11489 12593,11496 12616,11565 12619,11629 12605,11699 12590,11770 12561,11827 12513,11881 12508,11887 12503,11892 12498,11898 L 11897,12498 C 11891,12504 11887,12509 11881,12514 11827,12562 11770,12591 11699,12605 11628,12620 11564,12616 11496,12594 11488,12591 11482,12589 11474,12586 Z"/>
        <path fill="rgb(180,220,0)" stroke="none" d="M 5865,11366 C 5854,11340 5850,11316 5851,11289 5853,11257 5862,11231 5879,11205 5896,11179 5916,11161 5944,11147 5969,11134 5993,11129 6020,11129 L 9406,11129 C 9434,11129 9458,11134 9482,11147 9510,11161 9531,11179 9548,11205 9565,11231 9574,11257 9575,11289 9577,11316 9573,11340 9562,11366 L 8499,13819 C 8496,13826 8493,13832 8489,13839 8457,13904 8414,13951 8354,13991 8293,14031 8233,14051 8161,14055 8153,14055 8146,14055 8138,14055 L 7289,14055 C 7281,14055 7274,14055 7266,14055 7194,14051 7133,14031 7073,13991 7012,13951 6970,13904 6937,13839 6934,13832 6931,13826 6928,13819 L 5865,11366 Z"/>
        <path fill="rgb(180,220,0)" stroke="none" d="M 3824,8989 C 3834,8963 3848,8943 3869,8925 3892,8904 3917,8892 3947,8885 3978,8879 4005,8881 4035,8890 4061,8899 4082,8912 4102,8932 L 6496,11326 C 6515,11345 6528,11366 6537,11392 6547,11422 6548,11449 6542,11480 6535,11510 6523,11535 6502,11558 6484,11579 6464,11593 6438,11603 L 3952,12586 C 3945,12589 3938,12591 3931,12594 3862,12616 3799,12620 3728,12605 3657,12591 3600,12562 3546,12514 3540,12509 3535,12504 3530,12498 L 2929,11898 C 2923,11892 2919,11887 2913,11881 2865,11827 2837,11770 2822,11699 2807,11629 2811,11565 2834,11496 2836,11489 2838,11482 2841,11475 L 3824,8989 Z"/>
        <path fill="rgb(255,255,255)" stroke="none" d="M 2970,4819 C 2996,4807 3021,4803 3049,4805 3081,4807 3108,4815 3135,4833 3161,4850 3180,4871 3194,4900 3207,4925 3213,4950 3213,4978 L 3213,8449 C 3213,8477 3207,8501 3194,8527 3180,8555 3161,8576 3135,8594 3108,8611 3081,8620 3049,8622 3021,8624 2996,8619 2970,8608 L 456,7519 C 449,7515 442,7512 435,7509 369,7475 320,7432 279,7370 239,7308 218,7246 214,7172 213,7164 213,7157 213,7149 L 213,6278 C 213,6270 213,6263 214,6255 218,6181 239,6119 279,6057 320,5995 369,5951 435,5918 442,5914 449,5911 456,5908 L 2970,4819 Z"/>
        <path fill="rgb(255,255,255)" stroke="none" d="M 6713,1714 C 5792,1714 5010,1923 4213,2384 3416,2844 2843,3416 2383,4214 1923,5011 1713,5793 1713,6713 L 1713,6713 1713,6713 C 1713,7634 1923,8416 2383,9213 2843,10010 3416,10583 4213,11043 5010,11503 5792,11713 6713,11713 L 6713,11713 6713,11713 C 7633,11713 8415,11503 9213,11043 10010,10583 10582,10010 11043,9213 11503,8416 11712,7634 11712,6713 L 11712,6713 11712,6713 C 11712,5793 11503,5011 11043,4214 10582,3416 10010,2844 9213,2384 8415,1923 7633,1714 6713,1714 L 6713,1714 6713,1714 Z M 6713,4214 C 7173,4214 7564,4318 7963,4548 8361,4779 8648,5065 8878,5463 9108,5862 9213,6253 9213,6713 L 9213,6713 9213,6713 C 9213,7174 9108,7565 8878,7963 8648,8362 8361,8648 7963,8878 7564,9108 7173,9213 6713,9213 L 6713,9213 6713,9213 C 6253,9213 5861,9108 5463,8878 5064,8648 4778,8362 4548,7963 4318,7565 4213,7174 4213,6713 L 4213,6713 4213,6713 C 4213,6253 4318,5862 4548,5463 4778,5065 5064,4779 5463,4548 5861,4318 6253,4214 6713,4214 L 6713,4214 6713,4214 Z"/>
        <path fill="rgb(255,255,255)" stroke="none" d="M 5406,2727 C 5433,2737 5453,2752 5472,2773 5493,2797 5506,2822 5513,2853 5519,2884 5517,2913 5507,2943 5498,2970 5485,2991 5465,3011 L 3011,5465 C 2991,5485 2970,5498 2943,5507 2913,5517 2884,5519 2853,5513 2822,5506 2797,5493 2773,5472 2752,5453 2737,5433 2727,5406 L 1719,2858 C 1716,2850 1714,2844 1712,2836 1688,2766 1685,2701 1700,2628 1715,2555 1744,2497 1793,2442 1799,2436 1803,2431 1809,2425 L 2425,1809 C 2431,1803 2436,1799 2442,1793 2497,1744 2555,1715 2628,1700 2701,1685 2766,1688 2836,1712 2844,1714 2850,1716 2858,1719 L 5406,2727 Z"/>
        <path fill="rgb(255,255,255)" stroke="none" d="M 8608,2970 C 8619,2996 8624,3021 8622,3049 8620,3081 8611,3108 8594,3135 8576,3161 8555,3180 8527,3194 8501,3207 8477,3213 8449,3213 L 4978,3213 C 4950,3213 4925,3207 4900,3194 4871,3180 4850,3161 4833,3135 4815,3108 4807,3081 4805,3049 4803,3021 4807,2996 4819,2970 L 5908,456 C 5911,449 5914,442 5918,435 5951,369 5995,320 6057,279 6119,239 6181,218 6255,214 6263,213 6270,213 6278,213 L 7149,213 C 7157,213 7164,213 7172,214 7246,218 7308,239 7370,279 7432,320 7475,369 7509,435 7512,442 7515,449 7519,456 L 8608,2970 Z"/>
        <path fill="rgb(255,255,255)" stroke="none" d="M 10700,5406 C 10689,5433 10675,5453 10654,5472 10630,5493 10605,5506 10574,5513 10542,5519 10514,5517 10484,5507 10457,5498 10436,5485 10416,5465 L 7961,3011 C 7941,2991 7928,2970 7919,2943 7909,2913 7908,2884 7914,2853 7921,2822 7933,2797 7955,2773 7974,2752 7994,2737 8020,2727 L 10569,1719 C 10576,1716 10583,1714 10590,1712 10661,1688 10726,1685 10799,1700 10871,1715 10930,1744 10985,1793 10991,1799 10996,1803 11002,1809 L 11618,2425 C 11623,2431 11628,2436 11633,2442 11683,2497 11712,2555 11727,2628 11742,2701 11738,2766 11715,2836 11713,2844 11710,2850 11707,2858 L 10700,5406 Z"/>
        <path fill="rgb(255,255,255)" stroke="none" d="M 10456,8608 C 10430,8619 10406,8624 10377,8622 10346,8620 10319,8611 10292,8594 10265,8576 10247,8555 10232,8527 10219,8501 10214,8477 10214,8449 L 10214,4978 C 10214,4950 10219,4925 10232,4900 10247,4871 10265,4850 10292,4833 10319,4815 10346,4807 10377,4805 10406,4803 10430,4807 10456,4819 L 12971,5908 C 12978,5911 12984,5914 12992,5918 13058,5951 13107,5995 13147,6057 13188,6119 13209,6181 13213,6255 13213,6263 13214,6270 13214,6278 L 13214,7149 C 13214,7157 13213,7164 13213,7172 13209,7246 13188,7308 13147,7370 13107,7432 13058,7475 12992,7509 12984,7512 12978,7515 12971,7519 L 10456,8608 Z"/>
        <path fill="rgb(255,255,255)" stroke="none" d="M 8020,10700 C 7994,10689 7974,10675 7955,10654 7933,10630 7921,10605 7914,10574 7908,10542 7909,10514 7919,10484 7928,10457 7941,10436 7961,10416 L 10416,7961 C 10436,7941 10457,7928 10484,7919 10514,7909 10542,7908 10574,7914 10605,7921 10630,7933 10654,7955 10675,7974 10689,7994 10700,8020 L 11707,10569 C 11710,10576 11713,10583 11715,10590 11738,10661 11742,10726 11727,10799 11712,10871 11683,10930 11633,10985 11628,10991 11623,10996 11618,11002 L 11002,11618 C 10996,11623 10991,11628 10985,11633 10930,11683 10871,11712 10799,11727 10726,11742 10661,11738 10590,11715 10583,11713 10576,11710 10569,11707 L 8020,10700 Z"/>
        <path fill="rgb(255,255,255)" stroke="none" d="M 4819,10456 C 4807,10430 4803,10406 4805,10377 4807,10346 4815,10319 4833,10292 4850,10265 4871,10247 4900,10232 4925,10219 4950,10214 4978,10214 L 8449,10214 C 8477,10214 8501,10219 8527,10232 8555,10247 8576,10265 8594,10292 8611,10319 8620,10346 8622,10377 8624,10406 8619,10430 8608,10456 L 7519,12971 C 7515,12978 7512,12984 7509,12992 7475,13058 7432,13107 7370,13147 7308,13188 7246,13209 7172,13213 7164,13213 7157,13214 7149,13214 L 6278,13214 C 6270,13214 6263,13213 6255,13213 6181,13209 6119,13188 6057,13147 5995,13107 5951,13058 5918,12992 5914,12984 5911,12978 5908,12971 L 4819,10456 Z"/>
        <path fill="rgb(255,255,255)" stroke="none" d="M 1719,10569 L 2727,8020 C 2737,7994 2752,7974 2773,7955 2797,7933 2822,7921 2853,7914 2884,7908 2913,7909 2943,7919 2970,7928 2991,7941 3011,7961 L 5465,10416 C 5485,10436 5498,10457 5507,10484 5517,10514 5519,10542 5513,10574 5506,10605 5493,10630 5472,10654 5453,10675 5433,10689 5406,10700 L 2858,11707 C 2850,11710 2844,11713 2836,11715 2766,11738 2701,11742 2628,11727 2555,11712 2497,11683 2442,11633 2436,11628 2431,11623 2425,11618 L 1809,11002 C 1803,10996 1799,10991 1793,10985 1744,10930 1715,10871 1700,10799 1685,10726 1688,10661 1712,10590 1714,10583 1716,10576 1719,10569 Z"/>
        <path fill="rgb(255,255,255)" stroke="none" d="M 12337,10965 C 11740,11311 11310,11740 10965,12338 10620,12936 10462,13523 10462,14213 10462,14903 10620,15490 10965,16088 11310,16686 11740,17115 12337,17460 12935,17805 13522,17963 14212,17963 14902,17963 15489,17805 16087,17460 16685,17115 17114,16686 17460,16088 17805,15490 17962,14903 17962,14213 17962,13523 17805,12936 17460,12338 17114,11740 16685,11311 16087,10965 15489,10620 14902,10463 14212,10463 13522,10463 12935,10620 12337,10965 Z M 14212,12606 C 14508,12606 14760,12673 15016,12821 15272,12969 15456,13153 15604,13409 15752,13666 15819,13917 15819,14213 L 15819,14213 15819,14213 C 15819,14509 15752,14760 15604,15016 15456,15273 15272,15457 15016,15605 14760,15752 14508,15820 14212,15820 L 14212,15820 14212,15820 C 13916,15820 13665,15752 13409,15605 13152,15457 12968,15273 12820,15016 12673,14760 12605,14509 12605,14213 L 12605,14213 12605,14213 C 12605,13917 12673,13666 12820,13409 12968,13153 13152,12969 13409,12821 13665,12673 13916,12606 14212,12606 L 14212,12606 14212,12606 Z"/>
        <path fill="rgb(255,255,255)" stroke="none" d="M 12544,11812 C 12572,11808 12597,11810 12624,11819 12654,11829 12677,11844 12699,11868 12720,11892 12733,11917 12739,11948 12745,11976 12744,12001 12737,12028 L 11839,15381 C 11831,15408 11819,15430 11800,15451 11779,15475 11756,15491 11725,15501 11695,15511 11667,15512 11636,15506 11608,15500 11585,15490 11563,15472 L 9416,13769 C 9410,13764 9405,13759 9399,13754 9343,13705 9307,13650 9284,13580 9261,13509 9257,13444 9272,13371 9274,13363 9275,13357 9277,13349 L 9503,12508 C 9505,12500 9507,12493 9509,12486 9533,12415 9569,12361 9624,12311 9679,12262 9738,12232 9810,12217 9818,12216 9825,12215 9833,12213 L 12544,11812 Z"/>
        <path fill="rgb(255,255,255)" stroke="none" d="M 15423,11552 C 15441,11574 15451,11597 15457,11625 15463,11656 15462,11684 15452,11714 15442,11745 15426,11768 15402,11790 15381,11808 15359,11820 15332,11828 L 11979,12726 C 11952,12733 11927,12734 11899,12728 11868,12722 11843,12709 11819,12688 11795,12666 11780,12643 11770,12613 11761,12586 11759,12561 11763,12533 L 12164,9822 C 12166,9814 12167,9807 12168,9799 12183,9727 12213,9668 12262,9613 12312,9558 12366,9522 12437,9498 12444,9496 12451,9494 12459,9492 L 13300,9267 C 13308,9264 13314,9263 13322,9261 13395,9246 13460,9250 13531,9273 13601,9296 13656,9332 13705,9388 13710,9394 13715,9399 13720,9405 L 15423,11552 Z"/>
        <path fill="rgb(255,255,255)" stroke="none" d="M 17088,13916 C 17077,13942 17063,13962 17042,13981 17018,14003 16993,14015 16961,14022 16930,14028 16902,14027 16872,14017 16845,14008 16823,13995 16803,13974 L 14349,11520 C 14329,11500 14316,11479 14307,11452 14297,11422 14295,11394 14302,11362 14308,11331 14321,11306 14342,11282 14361,11261 14382,11247 14408,11236 L 16956,10229 C 16964,10226 16970,10223 16978,10221 17049,10197 17114,10194 17186,10209 17259,10224 17317,10253 17373,10303 17379,10308 17384,10313 17390,10318 L 18005,10934 C 18011,10940 18016,10945 18021,10951 18070,11006 18100,11065 18115,11137 18130,11210 18126,11275 18103,11346 18100,11353 18098,11360 18095,11367 L 17088,13916 Z"/>
        <path fill="rgb(255,255,255)" stroke="none" d="M 15873,16539 C 15845,16543 15820,16541 15793,16532 15763,16522 15739,16507 15718,16483 15697,16459 15684,16434 15677,16402 15672,16375 15672,16350 15680,16322 L 16578,12970 C 16585,12942 16597,12921 16616,12899 16637,12875 16661,12860 16691,12850 16722,12840 16750,12838 16781,12845 16809,12851 16831,12861 16854,12879 L 19000,14582 C 19007,14587 19012,14591 19018,14597 19073,14646 19109,14701 19132,14771 19156,14842 19160,14907 19144,14979 19143,14987 19141,14994 19139,15002 L 18914,15843 C 18912,15851 18910,15857 18907,15865 18884,15936 18848,15990 18793,16040 18737,16089 18679,16118 18606,16133 18598,16135 18592,16136 18584,16137 L 15873,16539 Z"/>
        <path fill="rgb(255,255,255)" stroke="none" d="M 12994,16799 C 12976,16777 12965,16754 12960,16726 12953,16695 12955,16667 12965,16636 12975,16606 12990,16582 13014,16561 13035,16542 13057,16530 13085,16523 L 16437,15625 C 16465,15617 16489,15617 16517,15623 16549,15629 16574,15642 16598,15663 16621,15684 16637,15708 16647,15738 16656,15765 16658,15790 16654,15818 L 16252,18529 C 16251,18537 16250,18543 16248,18551 16233,18624 16204,18682 16154,18738 16105,18793 16050,18829 15980,18852 15972,18855 15966,18857 15958,18859 L 15117,19084 C 15109,19086 15102,19088 15094,19090 15022,19105 14956,19101 14886,19078 14816,19054 14761,19019 14712,18963 14706,18957 14702,18952 14697,18945 L 12994,16799 Z"/>
        <path fill="rgb(255,255,255)" stroke="none" d="M 11329,14435 C 11339,14409 11354,14388 11375,14369 11399,14348 11424,14335 11455,14329 11487,14322 11515,14324 11545,14334 11572,14343 11593,14356 11613,14376 L 14067,16830 C 14088,16850 14101,16872 14110,16899 14120,16929 14121,16957 14115,16988 14108,17020 14096,17045 14074,17069 14055,17090 14035,17104 14008,17115 L 11460,18122 C 11453,18125 11446,18127 11438,18130 11368,18153 11303,18157 11230,18142 11158,18127 11099,18098 11044,18048 11038,18043 11033,18038 11027,18032 L 10411,17417 C 10406,17411 10401,17406 10395,17400 10346,17344 10317,17286 10302,17213 10287,17141 10290,17076 10314,17005 10316,16997 10319,16991 10322,16983 L 11329,14435 Z"/>
       </g>
      </g>
     </g>
    </g>
   </g>
  </g>
 </g>
</svg>